STARTFONT 2.3
FONT -FontForge-Zen Tokyo Zoo-Book-R-Normal--24-240-72-72-P-112-ISO10646-1
SIZE 24 72 72  2
FONTBOUNDINGBOX 32 32 -3 -6
COMMENT "Generated by fontforge, http://fontforge.sourceforge.net"
COMMENT "Copyright 2021 The Zen Tokyo Zoo Project Authors (https://github.com/googlefonts/zen-tokyo-zoo)"
STARTPROPERTIES 40
FOUNDRY "FontForge"
FAMILY_NAME "Zen Tokyo Zoo"
WEIGHT_NAME "Book"
SLANT "R"
SETWIDTH_NAME "Normal"
ADD_STYLE_NAME ""
PIXEL_SIZE 24
POINT_SIZE 240
RESOLUTION_X 72
RESOLUTION_Y 72
SPACING "P"
AVERAGE_WIDTH 112
CHARSET_REGISTRY "ISO10646"
CHARSET_ENCODING "1"
FONTNAME_REGISTRY ""
CHARSET_COLLECTIONS "ISO10646-1"
BITS_PER_PIXEL 2
FONT_NAME "ZenTokyoZoo-Regular"
FACE_NAME "Zen Tokyo Zoo Regular"
COPYRIGHT "Copyright 2021 The Zen Tokyo Zoo Project Authors (https://github.com/googlefonts/zen-tokyo-zoo)"
FONT_VERSION "1.002; ttfautohint (v1.8.3)"
FONT_ASCENT 19
FONT_DESCENT 5
UNDERLINE_POSITION -3
UNDERLINE_THICKNESS 1
X_HEIGHT 9
CAP_HEIGHT 19
RAW_ASCENT 800
RAW_DESCENT 200
NORM_SPACE 7
RELATIVE_WEIGHT 40
RELATIVE_SETWIDTH 50
SUPERSCRIPT_X 0
SUPERSCRIPT_Y 8
SUPERSCRIPT_SIZE 14
SUBSCRIPT_X 0
SUBSCRIPT_Y 1
SUBSCRIPT_SIZE 14
AVG_LOWERCASE_WIDTH 100
AVG_UPPERCASE_WIDTH 180
ENDPROPERTIES
CHARS 338
STARTCHAR CR
ENCODING 13
SWIDTH 600 0
DWIDTH 14 0
BBX 1 1 0 0
BITMAP
00
ENDCHAR
STARTCHAR space
ENCODING 32
SWIDTH 280 0
DWIDTH 7 0
BBX 1 1 0 0
BITMAP
00
ENDCHAR
STARTCHAR exclam
ENCODING 33
SWIDTH 196 0
DWIDTH 5 0
BBX 3 10 1 0
BITMAP
98
98
98
98
98
98
98
00
98
98
ENDCHAR
STARTCHAR quotedbl
ENCODING 34
SWIDTH 302 0
DWIDTH 7 0
BBX 7 3 0 7
BITMAP
5888
5888
5888
ENDCHAR
STARTCHAR numbersign
ENCODING 35
SWIDTH 513 0
DWIDTH 12 0
BBX 10 10 1 0
BITMAP
058580
259AA0
088000
196AA0
000940
AA9A50
001600
AA9650
122200
222600
ENDCHAR
STARTCHAR dollar
ENCODING 36
SWIDTH 379 0
DWIDTH 9 0
BBX 8 12 1 -1
BITMAP
0200
1620
9218
9654
9900
96A0
1A58
0195
5625
8208
2620
0200
ENDCHAR
STARTCHAR percent
ENCODING 37
SWIDTH 493 0
DWIDTH 12 0
BBX 12 10 0 0
BITMAP
1A4160
6A9250
5A5980
20A600
1A6500
0099A4
016698
0259A9
098598
1642A4
ENDCHAR
STARTCHAR ampersand
ENCODING 38
SWIDTH 487 0
DWIDTH 12 0
BBX 10 10 1 0
BITMAP
06A400
09A900
0A2600
095500
088400
222220
959860
889980
5A2600
2A8980
ENDCHAR
STARTCHAR quotesingle
ENCODING 39
SWIDTH 146 0
DWIDTH 4 0
BBX 3 3 0 7
BITMAP
58
58
58
ENDCHAR
STARTCHAR parenleft
ENCODING 40
SWIDTH 210 0
DWIDTH 5 0
BBX 5 11 0 -1
BITMAP
0940
1600
2500
2500
6800
5800
6800
2500
2500
1600
0940
ENDCHAR
STARTCHAR parenright
ENCODING 41
SWIDTH 210 0
DWIDTH 5 0
BBX 5 11 0 -1
BITMAP
6800
2600
1600
1A00
0940
0940
0940
1A00
1600
2600
6800
ENDCHAR
STARTCHAR asterisk
ENCODING 42
SWIDTH 358 0
DWIDTH 9 0
BBX 6 6 1 4
BITMAP
0900
5550
5050
5010
2550
1890
ENDCHAR
STARTCHAR plus
ENCODING 43
SWIDTH 394 0
DWIDTH 9 0
BBX 8 7 1 1
BITMAP
0580
0580
A599
0580
A599
0580
0580
ENDCHAR
STARTCHAR comma
ENCODING 44
SWIDTH 216 0
DWIDTH 5 0
BBX 3 3 1 -1
BITMAP
58
88
98
ENDCHAR
STARTCHAR hyphen
ENCODING 45
SWIDTH 326 0
DWIDTH 8 0
BBX 6 3 1 4
BITMAP
AA90
0000
AA90
ENDCHAR
STARTCHAR period
ENCODING 46
SWIDTH 176 0
DWIDTH 4 0
BBX 3 2 1 0
BITMAP
94
94
ENDCHAR
STARTCHAR slash
ENCODING 47
SWIDTH 298 0
DWIDTH 7 0
BBX 6 10 1 0
BITMAP
0690
0980
0980
0940
1600
2200
2500
5800
8800
9400
ENDCHAR
STARTCHAR zero
ENCODING 48
SWIDTH 306 0
DWIDTH 7 0
BBX 7 10 0 0
BITMAP
1A90
26A4
5898
5888
5888
5888
5888
5898
26A4
1A90
ENDCHAR
STARTCHAR one
ENCODING 49
SWIDTH 306 0
DWIDTH 7 0
BBX 5 10 1 0
BITMAP
A280
0280
A280
0280
0280
0280
0280
0280
0280
0280
ENDCHAR
STARTCHAR two
ENCODING 50
SWIDTH 299 0
DWIDTH 7 0
BBX 7 10 0 0
BITMAP
1A90
26A0
1494
0254
0620
0880
2240
0000
6AA4
6AA4
ENDCHAR
STARTCHAR three
ENCODING 51
SWIDTH 324 0
DWIDTH 8 0
BBX 6 10 1 0
BITMAP
2A80
8A60
5560
0020
0240
0260
5260
8A20
9060
2A80
ENDCHAR
STARTCHAR four
ENCODING 52
SWIDTH 339 0
DWIDTH 8 0
BBX 8 10 0 0
BITMAP
0260
0260
0980
0980
2600
0025
6A25
0025
6A25
0025
ENDCHAR
STARTCHAR five
ENCODING 53
SWIDTH 363 0
DWIDTH 9 0
BBX 7 10 1 0
BITMAP
2AA4
2AA4
0000
6800
6890
6820
0094
5894
2660
1A90
ENDCHAR
STARTCHAR six
ENCODING 54
SWIDTH 306 0
DWIDTH 7 0
BBX 7 10 0 0
BITMAP
1A90
26A4
5844
5800
5990
5824
5998
5898
26A4
1A90
ENDCHAR
STARTCHAR seven
ENCODING 55
SWIDTH 298 0
DWIDTH 7 0
BBX 6 10 1 0
BITMAP
AA90
0000
AA90
0000
0580
0880
0940
1600
2200
2500
ENDCHAR
STARTCHAR eight
ENCODING 56
SWIDTH 306 0
DWIDTH 7 0
BBX 7 10 0 0
BITMAP
0A90
26A4
6898
6658
2190
1920
6258
5898
26A4
1A90
ENDCHAR
STARTCHAR nine
ENCODING 57
SWIDTH 306 0
DWIDTH 7 0
BBX 7 10 0 0
BITMAP
0A90
26A4
6898
6688
2488
0988
0088
1498
26A4
1A90
ENDCHAR
STARTCHAR colon
ENCODING 58
SWIDTH 176 0
DWIDTH 4 0
BBX 3 6 1 0
BITMAP
94
94
00
00
94
94
ENDCHAR
STARTCHAR semicolon
ENCODING 59
SWIDTH 217 0
DWIDTH 5 0
BBX 4 7 1 -1
BITMAP
25
25
00
14
58
88
44
ENDCHAR
STARTCHAR less
ENCODING 60
SWIDTH 450 0
DWIDTH 11 0
BBX 9 10 1 0
BITMAP
000080
000A00
006580
015A00
092000
A59000
0A2800
019280
001940
000280
ENDCHAR
STARTCHAR equal
ENCODING 61
SWIDTH 344 0
DWIDTH 8 0
BBX 7 6 1 1
BITMAP
AAA4
AAA4
0000
0000
AAA4
AAA4
ENDCHAR
STARTCHAR greater
ENCODING 62
SWIDTH 450 0
DWIDTH 11 0
BBX 9 10 1 0
BITMAP
900000
280000
968000
196400
028640
016440
195400
964000
280000
900000
ENDCHAR
STARTCHAR question
ENCODING 63
SWIDTH 346 0
DWIDTH 8 0
BBX 6 10 1 0
BITMAP
2A80
9A60
4560
0260
0620
0890
0940
0940
0000
0940
ENDCHAR
STARTCHAR at
ENCODING 64
SWIDTH 490 0
DWIDTH 12 0
BBX 11 10 0 0
BITMAP
01AA40
0AAAA0
26AAD4
29AA68
5A8668
5A8668
29AAA8
266AA0
09A900
01AA40
ENDCHAR
STARTCHAR A
ENCODING 65
SWIDTH 798 0
DWIDTH 19 0
BBX 19 20 0 0
BITMAP
0002250000
0002594000
0005898000
0008948000
0009629000
0016226000
0022566000
0025899400
0098898800
0099465800
01A6022500
0266016200
0269009600
0698A98940
099AAA5880
0964002580
1626AA6250
2250001620
2580000960
5880000894
ENDCHAR
STARTCHAR B
ENCODING 66
SWIDTH 784 0
DWIDTH 19 0
BBX 17 20 1 0
BITMAP
9A2AAA9000
9A00002400
9A2AAA4900
9A00006200
9A2AAA1600
9A00009A40
9A00009A40
9A00009600
9A2AAAA200
9A2AAA4900
9A00006540
9A2AAA8480
9A00001980
9A00002580
9A00002580
9A00005580
9A6AAA4940
9A00006600
9A6AAAA800
9A6AAA9000
ENDCHAR
STARTCHAR C
ENCODING 67
SWIDTH 776 0
DWIDTH 19 0
BBX 18 20 0 0
BITMAP
0001AAA400
002AAA9640
009A4019A0
0260AA9240
0986402840
1A64000500
2660000000
2580000000
2980000000
5880000000
5880000000
2980000000
2580000000
2660000000
1A64000100
098A401840
0260AA9240
009A4019A0
002AAA9A40
0001AAA400
ENDCHAR
STARTCHAR D
ENCODING 68
SWIDTH 806 0
DWIDTH 19 0
BBX 18 20 1 0
BITMAP
9A2AA90000
9A00069000
9A2AA42400
9A00064900
9A2AA4A200
9A00061580
9A00008880
9A00006650
9A00002250
9A00001660
9A00001660
9A00001650
9A00002250
9A00006680
9A00008980
9A00061600
9A2AA4A900
9A0006A400
9A2AAA9000
9A2AA90000
ENDCHAR
STARTCHAR E
ENCODING 69
SWIDTH 677 0
DWIDTH 16 0
BBX 15 20 1 0
BITMAP
9A2AAAA4
9A000000
9A2AAAA4
9A000000
9A2AAAA4
9A000000
9A000000
9A000000
9A2AAA80
9A000000
9A2AAA80
9A2AAA80
9A000000
9A000000
9A000000
9A000000
9A2AAAA4
9A000000
9A2AAAA4
9A2AAAA4
ENDCHAR
STARTCHAR F
ENCODING 70
SWIDTH 677 0
DWIDTH 16 0
BBX 15 20 1 0
BITMAP
9A2AAAA4
9A000000
9A2AAAA4
9A000000
9A2AAAA4
9A000000
9A000000
9A000000
9A2AAA80
9A000000
9A2AAA80
9A2AAA80
9A000000
9A000000
9A000000
9A000000
9A000000
9A000000
9A000000
9A000000
ENDCHAR
STARTCHAR G
ENCODING 71
SWIDTH 872 0
DWIDTH 21 0
BBX 20 20 0 0
BITMAP
0001AAA400
002AAAAA40
009A401990
0260AA9264
0986402898
1A64000220
2660000140
2580000000
2980000000
588002AAAA
588002AAAA
2980000000
258002AAAA
2660000001
1A64000626
098A402899
0260AA9264
009A401990
002AAAAA40
0001AAA400
ENDCHAR
STARTCHAR H
ENCODING 72
SWIDTH 781 0
DWIDTH 19 0
BBX 17 20 1 0
BITMAP
9A00005980
9A00005980
9A00005980
9A00005980
9A00005980
9A00005980
9A00005980
9A00005980
9A2AAA5980
9A00005980
9A2AAA5980
9A2AAA5980
9A00005980
9A00005980
9A00005980
9A00005980
9A00005980
9A00005980
9A00005980
9A00005980
ENDCHAR
STARTCHAR I
ENCODING 73
SWIDTH 262 0
DWIDTH 6 0
BBX 4 20 1 0
BITMAP
9A
9A
9A
9A
9A
9A
9A
9A
9A
9A
9A
9A
9A
9A
9A
9A
9A
9A
9A
9A
ENDCHAR
STARTCHAR J
ENCODING 74
SWIDTH 674 0
DWIDTH 16 0
BBX 15 20 0 0
BITMAP
00000258
00000258
00000258
00000258
00000258
00000258
00000258
00000258
00000258
00000258
00000258
00000258
59400258
59800258
58800598
25601894
165AA260
09901A90
02AAAA40
006AA400
ENDCHAR
STARTCHAR K
ENCODING 75
SWIDTH 739 0
DWIDTH 18 0
BBX 16 20 1 0
BITMAP
9A000222
9A000999
9A001994
9A002260
9A009980
9A015640
9A016600
9A088800
9A162400
9A198000
9A999000
9A226000
9A089800
9A066600
9A026640
9A008980
9A002260
9A001998
9A000999
9A000226
ENDCHAR
STARTCHAR L
ENCODING 76
SWIDTH 604 0
DWIDTH 15 0
BBX 13 20 1 0
BITMAP
9A000000
9A000000
9A000000
9A000000
9A000000
9A000000
9A000000
9A000000
9A000000
9A000000
9A000000
9A000000
9A000000
9A000000
9A000000
9A000000
9A2AAA80
9A000000
9A2AAA80
9A2AAA80
ENDCHAR
STARTCHAR M
ENCODING 77
SWIDTH 909 0
DWIDTH 22 0
BBX 20 20 1 0
BITMAP
9A00000162
9A00000562
9A20000962
9A24002562
9A08006562
9A26008962
9A15426562
9A18865562
9A22249962
9A19996162
9A09995162
9A02220162
9A01990162
9A00980162
9A00200162
9A00100162
9A00000162
9A00000162
9A00000162
9A00000162
ENDCHAR
STARTCHAR N
ENCODING 78
SWIDTH 796 0
DWIDTH 19 0
BBX 17 20 1 0
BITMAP
9A00002580
9A00002580
9A20002580
9A14002580
9A19002580
9A22002580
9A19802580
9A19902580
9A22202580
9A19982580
9A09992580
9A02222580
9A01992580
9A00992580
9A00222580
9A00192580
9A00052580
9A00022580
9A00002580
9A00002580
ENDCHAR
STARTCHAR O
ENCODING 79
SWIDTH 894 0
DWIDTH 21 0
BBX 21 20 0 0
BITMAP
0001AAA40000
002AAAAA4000
009A40199000
0260AA92A400
098640185900
1A6400022600
266000019A00
258000008940
298000005880
588000006880
588000006880
298000005880
258000008940
266000019A00
1A6400022600
098A40185900
0260AA92A400
009A40199000
002AAAAA4000
0001AAA40000
ENDCHAR
STARTCHAR P
ENCODING 80
SWIDTH 743 0
DWIDTH 18 0
BBX 17 20 1 0
BITMAP
9A2AAA9000
9A00002400
9A2AAA4900
9A00006200
9A2AAA1600
9A00009A40
9A00009A40
9A00009600
9A2AAAA200
9A2AAA4900
9A00006400
9A2AAA8000
9A00000000
9A00000000
9A00000000
9A00000000
9A00000000
9A00000000
9A00000000
9A00000000
ENDCHAR
STARTCHAR Q
ENCODING 81
SWIDTH 911 0
DWIDTH 22 0
BBX 21 20 0 0
BITMAP
0001AAA40000
002AAAAA4000
009A401A9000
0260AA92A400
098640285900
1A6400062600
266000019A00
258000008940
298000005980
588000005980
588000006880
298000055980
258000164940
266000499600
1A6400626500
098A40199900
0260AA966640
009A40259980
002AAA956600
0001AAA41800
ENDCHAR
STARTCHAR R
ENCODING 82
SWIDTH 745 0
DWIDTH 18 0
BBX 17 20 1 0
BITMAP
9A2AAA9000
9A00002400
9A2AAA4900
9A00006200
9A2AAA1600
9A00009A40
9A00009A40
9A00009600
9A2AAAA200
9A2AAA4900
9A00006400
9A2AAA8000
9A00044000
9A00658000
9A00226000
9A00166000
9A00089400
9A00058800
9A00026500
9A00016200
ENDCHAR
STARTCHAR S
ENCODING 83
SWIDTH 660 0
DWIDTH 16 0
BBX 14 20 1 0
BITMAP
01AAA400
0AAAAA00
26402980
986A9650
96802620
A2000400
96400000
89A40000
66469000
18691900
0291A180
001A5950
00006620
00000960
110009A0
A6402560
986A9260
66401980
19AAAA00
01AAA400
ENDCHAR
STARTCHAR T
ENCODING 84
SWIDTH 641 0
DWIDTH 15 0
BBX 15 20 0 0
BITMAP
AAAAAAA8
00000000
AAAAAAA8
00000000
AAAAAAA8
00051000
00162000
00162000
00162000
00162000
00162000
00162000
00162000
00162000
00162000
00162000
00162000
00162000
00162000
00162000
ENDCHAR
STARTCHAR U
ENCODING 85
SWIDTH 702 0
DWIDTH 17 0
BBX 15 20 1 0
BITMAP
9A000588
9A000588
9A000588
9A000588
9A000588
9A000588
9A000588
9A000588
9A000588
9A000588
9A000588
9A000588
9A000588
9A400598
99800894
689029A0
261A9260
09901980
06AAAA00
006AA400
ENDCHAR
STARTCHAR V
ENCODING 86
SWIDTH 758 0
DWIDTH 18 0
BBX 18 20 0 0
BITMAP
5880002660
2580002690
2250006980
1620009980
0960009A40
089401A600
0588026600
0258026900
0225069800
0162099800
009609A400
00895A6000
0058966000
0025869000
0022558000
0016218000
0009624000
0009950000
0009880000
0006980000
ENDCHAR
STARTCHAR W
ENCODING 87
SWIDTH 972 0
DWIDTH 23 0
BBX 23 20 0 0
BITMAP
588009600588
29801A600994
2580166008A4
225022500960
166025841620
1A6069942650
096059882290
089489482580
059896295880
0698A6255940
025866224A40
022525561600
0166589A6200
016258995500
009618588900
008954258800
009950269400
005880265000
002580162000
002690096000
ENDCHAR
STARTCHAR X
ENCODING 88
SWIDTH 712 0
DWIDTH 17 0
BBX 17 20 0 0
BITMAP
2220026200
1964066500
0988088800
0265196400
0262226000
0099898000
0059898000
0022620000
0019650000
0008880000
0006590000
0022620000
0064994000
0088998000
0166266000
0266166000
0988089800
0994065900
2620022200
6590019640
ENDCHAR
STARTCHAR Y
ENCODING 89
SWIDTH 769 0
DWIDTH 18 0
BBX 18 20 0 0
BITMAP
5990002220
2220005590
1994009980
0998026200
0226065500
0195489800
0098866000
0026625000
0015648000
0008884000
0001550000
0001140000
0002290000
0002290000
0002290000
0002290000
0002290000
0002290000
0002290000
0002290000
ENDCHAR
STARTCHAR Z
ENCODING 90
SWIDTH 708 0
DWIDTH 17 0
BBX 17 20 0 0
BITMAP
0AAAA89940
0000026200
0AAAA65900
0000089800
0AAAA66000
0000265000
0000988000
0001964000
0002260000
0005980000
0009940000
0026200000
0065900000
0089800000
0166000000
0265000000
0988AAA800
1964000000
2262AAA800
599AAAA800
ENDCHAR
STARTCHAR bracketleft
ENCODING 91
SWIDTH 320 0
DWIDTH 8 0
BBX 6 11 1 -1
BITMAP
9690
9A90
9800
9800
9800
9800
9800
9800
9A90
9800
9690
ENDCHAR
STARTCHAR backslash
ENCODING 92
SWIDTH 298 0
DWIDTH 7 0
BBX 6 10 1 0
BITMAP
9400
8800
5800
2500
2200
1600
0940
0980
0980
0690
ENDCHAR
STARTCHAR bracketright
ENCODING 93
SWIDTH 320 0
DWIDTH 8 0
BBX 6 11 1 -1
BITMAP
A650
A650
0250
0250
0250
0250
0250
0250
A650
0250
A650
ENDCHAR
STARTCHAR asciicircum
ENCODING 94
SWIDTH 309 0
DWIDTH 7 0
BBX 5 4 1 6
BITMAP
0800
1500
2140
9880
ENDCHAR
STARTCHAR underscore
ENCODING 95
SWIDTH 472 0
DWIDTH 11 0
BBX 9 3 1 0
BITMAP
AAAA80
000000
AAAA80
ENDCHAR
STARTCHAR grave
ENCODING 96
SWIDTH 195 0
DWIDTH 5 0
BBX 3 3 1 11
BITMAP
40
60
24
ENDCHAR
STARTCHAR a
ENCODING 97
SWIDTH 414 0
DWIDTH 10 0
BBX 10 10 0 0
BITMAP
016400
022800
025800
05A500
09A200
1A1600
26A940
260980
6AA990
980260
ENDCHAR
STARTCHAR b
ENCODING 98
SWIDTH 423 0
DWIDTH 10 0
BBX 9 10 1 0
BITMAP
9AA800
940600
9AA600
941A00
9AAA00
9AA600
940940
940940
9AA600
9AA900
ENDCHAR
STARTCHAR c
ENCODING 99
SWIDTH 446 0
DWIDTH 11 0
BBX 10 10 0 0
BITMAP
01AA40
09A960
264140
250000
680000
680000
250000
264140
09A960
01AA40
ENDCHAR
STARTCHAR d
ENCODING 100
SWIDTH 450 0
DWIDTH 11 0
BBX 9 10 1 0
BITMAP
9AA400
940600
9AA140
941880
940580
940580
940580
941940
9AAA00
9AA400
ENDCHAR
STARTCHAR e
ENCODING 101
SWIDTH 363 0
DWIDTH 9 0
BBX 8 10 1 0
BITMAP
9AA9
9400
9AA9
9400
9AA4
9AA4
9400
9400
9AA9
9AA9
ENDCHAR
STARTCHAR f
ENCODING 102
SWIDTH 365 0
DWIDTH 9 0
BBX 8 10 1 0
BITMAP
9AA9
9400
9AA9
9400
9AA4
9AA4
9400
9400
9400
9400
ENDCHAR
STARTCHAR g
ENCODING 103
SWIDTH 483 0
DWIDTH 12 0
BBX 11 10 0 0
BITMAP
01AA40
09AA60
264180
250000
6806A8
680000
2506A8
264194
09AA60
01AA40
ENDCHAR
STARTCHAR h
ENCODING 104
SWIDTH 428 0
DWIDTH 10 0
BBX 9 10 1 0
BITMAP
940940
940940
940940
940940
9AA940
9AA940
940940
940940
940940
940940
ENDCHAR
STARTCHAR i
ENCODING 105
SWIDTH 176 0
DWIDTH 4 0
BBX 3 10 1 0
BITMAP
94
94
94
94
94
94
94
94
94
94
ENDCHAR
STARTCHAR j
ENCODING 106
SWIDTH 390 0
DWIDTH 9 0
BBX 8 10 1 0
BITMAP
0025
0025
0025
0025
0025
0025
5025
9468
9AA8
1A90
ENDCHAR
STARTCHAR k
ENCODING 107
SWIDTH 381 0
DWIDTH 9 0
BBX 8 10 1 0
BITMAP
9459
9488
9564
9660
9A80
9680
9D90
9620
9598
9456
ENDCHAR
STARTCHAR l
ENCODING 108
SWIDTH 330 0
DWIDTH 8 0
BBX 7 10 1 0
BITMAP
9400
9400
9400
9400
9400
9400
9400
9400
9AA4
9AA4
ENDCHAR
STARTCHAR m
ENCODING 109
SWIDTH 501 0
DWIDTH 12 0
BBX 10 10 1 0
BITMAP
980260
990660
965960
98A260
9A6A60
955960
949160
940160
940160
940160
ENDCHAR
STARTCHAR n
ENCODING 110
SWIDTH 444 0
DWIDTH 11 0
BBX 9 10 1 0
BITMAP
980880
9D0880
960880
998880
999880
966880
949C80
946880
942880
940C80
ENDCHAR
STARTCHAR o
ENCODING 111
SWIDTH 494 0
DWIDTH 12 0
BBX 11 10 0 0
BITMAP
01AA40
09AAA0
264194
250098
680058
680058
250098
264194
09AAA0
01AA40
ENDCHAR
STARTCHAR p
ENCODING 112
SWIDTH 412 0
DWIDTH 10 0
BBX 8 10 1 0
BITMAP
9AA8
9402
9AA6
941A
9AA6
9AA8
9400
9400
9400
9400
ENDCHAR
STARTCHAR q
ENCODING 113
SWIDTH 494 0
DWIDTH 12 0
BBX 11 10 0 0
BITMAP
01AA40
09AAA0
2641A4
250098
680058
680058
2500D8
264668
09AA98
01AA60
ENDCHAR
STARTCHAR r
ENCODING 114
SWIDTH 412 0
DWIDTH 10 0
BBX 8 10 1 0
BITMAP
9AA8
9402
9AA6
941A
9AA6
9AF8
9488
9458
9425
9422
ENDCHAR
STARTCHAR s
ENCODING 115
SWIDTH 379 0
DWIDTH 9 0
BBX 8 10 1 0
BITMAP
1AA0
AA98
A414
9A40
9164
2908
0195
5029
9A98
2AA0
ENDCHAR
STARTCHAR t
ENCODING 116
SWIDTH 349 0
DWIDTH 8 0
BBX 8 10 0 0
BITMAP
AAAA
0000
ABAA
0250
0250
0250
0250
0250
0250
0250
ENDCHAR
STARTCHAR u
ENCODING 117
SWIDTH 400 0
DWIDTH 10 0
BBX 8 10 1 0
BITMAP
9422
9422
9422
9422
9422
9422
9426
9825
6A98
1AA0
ENDCHAR
STARTCHAR v
ENCODING 118
SWIDTH 394 0
DWIDTH 9 0
BBX 9 10 0 0
BITMAP
980580
690880
260940
221600
162200
09A500
08D800
059800
026400
023000
ENDCHAR
STARTCHAR w
ENCODING 119
SWIDTH 521 0
DWIDTH 13 0
BBX 12 10 0 0
BITMAP
882616
582626
255A22
259A25
229998
169DD8
0969C8
09A594
08E270
059270
ENDCHAR
STARTCHAR x
ENCODING 120
SWIDTH 369 0
DWIDTH 9 0
BBX 9 10 0 0
BITMAP
651600
262600
19D800
099800
027000
076000
09D800
169900
222200
591940
ENDCHAR
STARTCHAR y
ENCODING 121
SWIDTH 422 0
DWIDTH 10 0
BBX 10 10 0 0
BITMAP
550660
220880
19A640
09A600
022800
011400
00A400
00A400
00A400
00A400
ENDCHAR
STARTCHAR z
ENCODING 122
SWIDTH 409 0
DWIDTH 10 0
BBX 8 10 1 0
BITMAP
AAAA
0000
55AA
0088
0224
0990
2580
9600
EEAA
AAAA
ENDCHAR
STARTCHAR braceleft
ENCODING 123
SWIDTH 443 0
DWIDTH 11 0
BBX 9 11 1 -1
BITMAP
025A40
025A40
025000
025000
A65000
025000
A65000
025000
025A40
025000
025A40
ENDCHAR
STARTCHAR bar
ENCODING 124
SWIDTH 196 0
DWIDTH 5 0
BBX 3 11 1 -1
BITMAP
98
98
98
98
98
98
98
98
98
98
98
ENDCHAR
STARTCHAR braceright
ENCODING 125
SWIDTH 506 0
DWIDTH 12 0
BBX 9 11 2 -1
BITMAP
696000
696000
016000
016000
016680
016000
016680
016000
696000
016000
696000
ENDCHAR
STARTCHAR asciitilde
ENCODING 126
SWIDTH 450 0
DWIDTH 11 0
BBX 9 4 1 3
BITMAP
6A4040
406A40
6A4040
406A40
ENDCHAR
STARTCHAR uni00A0
ENCODING 160
SWIDTH 280 0
DWIDTH 7 0
BBX 1 1 0 0
BITMAP
00
ENDCHAR
STARTCHAR exclamdown
ENCODING 161
SWIDTH 196 0
DWIDTH 5 0
BBX 3 10 1 -3
BITMAP
98
98
00
98
98
98
98
98
98
98
ENDCHAR
STARTCHAR cent
ENCODING 162
SWIDTH 305 0
DWIDTH 7 0
BBX 7 12 0 -1
BITMAP
0180
0680
0A90
2418
5694
9810
9400
6810
2AA4
0AA4
0180
0680
ENDCHAR
STARTCHAR sterling
ENCODING 163
SWIDTH 408 0
DWIDTH 10 0
BBX 9 10 0 0
BITMAP
2AA400
5A9800
000000
AAA800
000000
AAA800
160000
000000
AAAA80
AAAA80
ENDCHAR
STARTCHAR currency
ENCODING 164
SWIDTH 401 0
DWIDTH 10 0
BBX 8 9 1 0
BITMAP
1004
2014
8696
1AA0
2260
1820
8695
6015
1004
ENDCHAR
STARTCHAR yen
ENCODING 165
SWIDTH 423 0
DWIDTH 10 0
BBX 10 10 0 0
BITMAP
550660
220880
199640
09A600
022800
015400
289680
009400
289680
009400
ENDCHAR
STARTCHAR brokenbar
ENCODING 166
SWIDTH 196 0
DWIDTH 5 0
BBX 3 10 1 0
BITMAP
98
98
98
98
00
00
98
98
98
98
ENDCHAR
STARTCHAR section
ENCODING 167
SWIDTH 322 0
DWIDTH 8 0
BBX 7 11 0 -1
BITMAP
0694
1810
2290
2914
6598
5A58
2564
0A48
0468
2AA8
1A90
ENDCHAR
STARTCHAR dieresis
ENCODING 168
SWIDTH 287 0
DWIDTH 7 0
BBX 5 2 1 12
BITMAP
5240
A240
ENDCHAR
STARTCHAR copyright
ENCODING 169
SWIDTH 493 0
DWIDTH 12 0
BBX 11 11 0 0
BITMAP
01AA00
0A0190
180024
206908
218108
514008
218108
206908
180024
0A0190
01AA40
ENDCHAR
STARTCHAR ordfeminine
ENCODING 170
SWIDTH 331 0
DWIDTH 8 0
BBX 6 4 1 6
BITMAP
1640
2A80
6A50
AA60
ENDCHAR
STARTCHAR guillemotleft
ENCODING 171
SWIDTH 298 0
DWIDTH 7 0
BBX 5 6 1 2
BITMAP
0040
6180
5540
5540
6180
0040
ENDCHAR
STARTCHAR logicalnot
ENCODING 172
SWIDTH 420 0
DWIDTH 10 0
BBX 8 5 1 1
BITMAP
AAAA
AAAA
0000
0016
0016
ENDCHAR
STARTCHAR uni00AD
ENCODING 173
SWIDTH 326 0
DWIDTH 8 0
BBX 6 3 1 4
BITMAP
AA90
0000
AA90
ENDCHAR
STARTCHAR registered
ENCODING 174
SWIDTH 493 0
DWIDTH 12 0
BBX 11 11 0 0
BITMAP
01AA00
0A0190
180024
200008
20AA08
50AA08
208508
208208
180024
0A0190
01AA40
ENDCHAR
STARTCHAR macron
ENCODING 175
SWIDTH 331 0
DWIDTH 8 0
BBX 6 1 1 12
BITMAP
AAA0
ENDCHAR
STARTCHAR degree
ENCODING 176
SWIDTH 298 0
DWIDTH 7 0
BBX 5 5 1 5
BITMAP
2A00
9980
9580
9980
2A00
ENDCHAR
STARTCHAR plusminus
ENCODING 177
SWIDTH 418 0
DWIDTH 10 0
BBX 8 10 1 0
BITMAP
0290
0290
A29A
0290
A29A
0290
0290
0000
AAAA
AAAA
ENDCHAR
STARTCHAR uni00B2
ENCODING 178
SWIDTH 233 0
DWIDTH 6 0
BBX 4 5 1 5
BITMAP
68
55
54
54
54
ENDCHAR
STARTCHAR uni00B3
ENCODING 179
SWIDTH 228 0
DWIDTH 5 0
BBX 4 5 1 5
BITMAP
58
55
18
55
68
ENDCHAR
STARTCHAR acute
ENCODING 180
SWIDTH 195 0
DWIDTH 5 0
BBX 3 3 1 11
BITMAP
14
20
90
ENDCHAR
STARTCHAR uni00B5
ENCODING 181
SWIDTH 506 0
DWIDTH 12 0
BBX 11 13 1 -3
BITMAP
981600
981600
981600
981600
981600
981600
981600
982600
9A98A0
9AA5A4
980000
980000
940000
ENDCHAR
STARTCHAR paragraph
ENCODING 182
SWIDTH 435 0
DWIDTH 10 0
BBX 10 10 0 0
BITMAP
1AAA90
200000
56AA90
582550
2A6550
0A6550
002550
002550
002550
002550
ENDCHAR
STARTCHAR periodcentered
ENCODING 183
SWIDTH 176 0
DWIDTH 4 0
BBX 3 2 1 4
BITMAP
94
94
ENDCHAR
STARTCHAR cedilla
ENCODING 184
SWIDTH 261 0
DWIDTH 6 0
BBX 4 4 1 -4
BITMAP
24
7A
02
69
ENDCHAR
STARTCHAR uni00B9
ENCODING 185
SWIDTH 218 0
DWIDTH 5 0
BBX 3 5 1 5
BITMAP
58
58
18
18
18
ENDCHAR
STARTCHAR ordmasculine
ENCODING 186
SWIDTH 335 0
DWIDTH 8 0
BBX 6 6 1 5
BITMAP
1A40
6590
9060
9060
5550
1A80
ENDCHAR
STARTCHAR guillemotright
ENCODING 187
SWIDTH 298 0
DWIDTH 7 0
BBX 5 6 1 2
BITMAP
4100
A240
5140
5540
A240
4100
ENDCHAR
STARTCHAR onequarter
ENCODING 188
SWIDTH 429 0
DWIDTH 10 0
BBX 9 10 1 0
BITMAP
540A00
541400
142800
146000
149000
028A00
055900
0A1540
151540
281540
ENDCHAR
STARTCHAR onehalf
ENCODING 189
SWIDTH 437 0
DWIDTH 10 0
BBX 9 10 1 0
BITMAP
541500
542800
145400
14A000
155600
029580
060240
090900
281540
141540
ENDCHAR
STARTCHAR threequarters
ENCODING 190
SWIDTH 409 0
DWIDTH 10 0
BBX 8 10 1 0
BITMAP
6404
5428
1454
64A0
6550
0299
0628
0915
2856
5456
ENDCHAR
STARTCHAR questiondown
ENCODING 191
SWIDTH 346 0
DWIDTH 8 0
BBX 6 10 1 -2
BITMAP
0940
0000
0940
0940
2600
9900
9810
8A60
6060
1A80
ENDCHAR
STARTCHAR Agrave
ENCODING 192
SWIDTH 798 0
DWIDTH 19 0
BBX 19 26 0 0
BITMAP
0019400000
0009800000
0002600000
0002600000
0000880000
0000000000
0002250000
0002594000
0005898000
0008948000
0009629000
0016226000
0022566000
0025899400
0098898800
0099465800
01A6022500
0266016200
0269009600
0698A98940
099AAA5880
0964002580
1626AA6250
2250001620
2580000960
5880000894
ENDCHAR
STARTCHAR Aacute
ENCODING 193
SWIDTH 798 0
DWIDTH 19 0
BBX 19 26 0 0
BITMAP
0000022000
0000059000
0000098000
0000260000
0000660000
0000000000
0002250000
0002594000
0005898000
0008948000
0009629000
0016226000
0022566000
0025899400
0098898800
0099465800
01A6022500
0266016200
0269009600
0698A98940
099AAA5880
0964002580
1626AA6250
2250001620
2580000960
5880000894
ENDCHAR
STARTCHAR Acircumflex
ENCODING 194
SWIDTH 798 0
DWIDTH 19 0
BBX 19 26 0 0
BITMAP
0002640000
0006620000
0008858000
0026499000
0055022000
0000000000
0002250000
0002594000
0005898000
0008948000
0009629000
0016226000
0022566000
0025899400
0098898800
0099465800
01A6022500
0266016200
0269009600
0698A98940
099AAA5880
0964002580
1626AA6250
2250001620
2580000960
5880000894
ENDCHAR
STARTCHAR Atilde
ENCODING 195
SWIDTH 798 0
DWIDTH 19 0
BBX 19 24 0 0
BITMAP
000A801000
0024642000
00200A9000
0000000000
0002250000
0002594000
0005898000
0008948000
0009629000
0016226000
0022566000
0025899400
0098898800
0099465800
01A6022500
0266016200
0269009600
0698A98940
099AAA5880
0964002580
1626AA6250
2250001620
2580000960
5880000894
ENDCHAR
STARTCHAR Adieresis
ENCODING 196
SWIDTH 798 0
DWIDTH 19 0
BBX 19 26 0 0
BITMAP
002A01A400
0091460800
0080850800
0091460800
002A01A400
0000000000
0002250000
0002594000
0005898000
0008948000
0009629000
0016226000
0022566000
0025899400
0098898800
0099465800
01A6022500
0266016200
0269009600
0698A98940
099AAA5880
0964002580
1626AA6250
2250001620
2580000960
5880000894
ENDCHAR
STARTCHAR Aring
ENCODING 197
SWIDTH 798 0
DWIDTH 19 0
BBX 19 26 0 0
BITMAP
0000A80000
0002420000
0002020000
0002420000
0000A80000
0000000000
0002250000
0002594000
0005898000
0008948000
0009629000
0016226000
0022566000
0025899400
0098898800
0099465800
01A6022500
0266016200
0269009600
0698A98940
099AAA5880
0964002580
1626AA6250
2250001620
2580000960
5880000894
ENDCHAR
STARTCHAR AE
ENCODING 198
SWIDTH 1078 0
DWIDTH 26 0
BBX 25 20 0 0
BITMAP
00000896AAAA80
00000994000000
0000159AAAAA80
00006588000000
00008689AAAA80
00019258000000
00022258000000
00066258000000
00089629AAAA00
0019A225000000
00226165AAAA00
006581666AAA00
00898162000000
019600A6000000
02266896000000
06580096000000
0898A99A2AAA80
1962A98A400000
226000896AAA80
658000596AAA80
ENDCHAR
STARTCHAR Ccedilla
ENCODING 199
SWIDTH 776 0
DWIDTH 19 0
BBX 18 26 0 -6
BITMAP
0001AAA400
002AAA9640
009A4019A0
0260AA9240
0986402840
1A64000500
2660000000
2580000000
2980000000
5880000000
5880000000
2980000000
2580000000
2660000000
1A64000100
098A401840
0260AA9240
009A4019A0
002AAA9A40
0001BAA400
0000200000
0000900000
0000E90000
0000424000
0001020000
0001A90000
ENDCHAR
STARTCHAR Egrave
ENCODING 200
SWIDTH 677 0
DWIDTH 16 0
BBX 15 26 1 0
BITMAP
00198000
00098000
00026000
00016400
00008800
00000000
9A2AAAA4
9A000000
9A2AAAA4
9A000000
9A2AAAA4
9A000000
9A000000
9A000000
9A2AAA80
9A000000
9A2AAA80
9A2AAA80
9A000000
9A000000
9A000000
9A000000
9A2AAAA4
9A000000
9A2AAAA4
9A2AAAA4
ENDCHAR
STARTCHAR Eacute
ENCODING 201
SWIDTH 677 0
DWIDTH 16 0
BBX 15 26 1 0
BITMAP
00008800
00026000
00026000
00098000
00194000
00000000
9A2AAAA4
9A000000
9A2AAAA4
9A000000
9A2AAAA4
9A000000
9A000000
9A000000
9A2AAA80
9A000000
9A2AAA80
9A2AAA80
9A000000
9A000000
9A000000
9A000000
9A2AAAA4
9A000000
9A2AAAA4
9A2AAAA4
ENDCHAR
STARTCHAR Ecircumflex
ENCODING 202
SWIDTH 677 0
DWIDTH 16 0
BBX 15 26 1 0
BITMAP
00099000
00265800
00665900
00882200
02641980
00000000
9A2AAAA4
9A000000
9A2AAAA4
9A000000
9A2AAAA4
9A000000
9A000000
9A000000
9A2AAA80
9A000000
9A2AAA80
9A2AAA80
9A000000
9A000000
9A000000
9A000000
9A2AAAA4
9A000000
9A2AAAA4
9A2AAAA4
ENDCHAR
STARTCHAR Edieresis
ENCODING 203
SWIDTH 677 0
DWIDTH 16 0
BBX 15 26 1 0
BITMAP
01A40A80
02091460
06052020
02092460
01A40A80
00000000
9A2AAAA4
9A000000
9A2AAAA4
9A000000
9A2AAAA4
9A000000
9A000000
9A000000
9A2AAA80
9A000000
9A2AAA80
9A2AAA80
9A000000
9A000000
9A000000
9A000000
9A2AAAA4
9A000000
9A2AAAA4
9A2AAAA4
ENDCHAR
STARTCHAR Igrave
ENCODING 204
SWIDTH 262 0
DWIDTH 6 0
BBX 6 26 -1 0
BITMAP
9800
5900
2200
1940
0980
0000
09A0
09A0
09A0
09A0
09A0
09A0
09A0
09A0
09A0
09A0
09A0
09A0
09A0
09A0
09A0
09A0
09A0
09A0
09A0
09A0
ENDCHAR
STARTCHAR Iacute
ENCODING 205
SWIDTH 262 0
DWIDTH 6 0
BBX 6 26 1 0
BITMAP
0260
0660
0880
1940
2200
0000
9A00
9A00
9A00
9A00
9A00
9A00
9A00
9A00
9A00
9A00
9A00
9A00
9A00
9A00
9A00
9A00
9A00
9A00
9A00
9A00
ENDCHAR
STARTCHAR Icircumflex
ENCODING 206
SWIDTH 262 0
DWIDTH 6 0
BBX 10 26 -2 0
BITMAP
022000
099500
155200
660980
880660
000000
026800
026800
026800
026800
026800
026800
026800
026800
026800
026800
026800
026800
026800
026800
026800
026800
026800
026800
026800
026800
ENDCHAR
STARTCHAR Idieresis
ENCODING 207
SWIDTH 262 0
DWIDTH 6 0
BBX 12 26 -3 0
BITMAP
1A40A8
608245
509202
608245
1A40A8
000000
009A00
009A00
009A00
009A00
009A00
009A00
009A00
009A00
009A00
009A00
009A00
009A00
009A00
009A00
009A00
009A00
009A00
009A00
009A00
009A00
ENDCHAR
STARTCHAR Eth
ENCODING 208
SWIDTH 856 0
DWIDTH 21 0
BBX 20 20 0 0
BITMAP
0896AA9000
0894001900
0896AA4280
0894006860
0896AA4624
0894006588
0894000999
0000000226
AAAAA00162
00000001A6
AAAAA000A6
AAAAA001A6
0000000166
0894000229
0894000998
08940065A4
0896AA4660
0894006A80
0896AAA900
0896AA9000
ENDCHAR
STARTCHAR Ntilde
ENCODING 209
SWIDTH 796 0
DWIDTH 19 0
BBX 17 24 1 0
BITMAP
002A004000
0091908000
00802A0000
0000000000
9A00002580
9A00002580
9A20002580
9A14002580
9A19002580
9A22002580
9A19802580
9A19902580
9A22202580
9A19982580
9A09992580
9A02222580
9A01992580
9A00992580
9A00222580
9A00192580
9A00052580
9A00022580
9A00002580
9A00002580
ENDCHAR
STARTCHAR Ograve
ENCODING 210
SWIDTH 894 0
DWIDTH 21 0
BBX 21 26 0 0
BITMAP
000260000000
000260000000
000098000000
000059000000
000022000000
000000000000
0001AAA40000
002AAAAA4000
009A40199000
0260AA92A400
098640185900
1A6400022600
266000019A00
258000008940
298000005880
588000006880
588000006880
298000005880
258000008940
266000019A00
1A6400022600
098A40185900
0260AA92A400
009A40199000
002AAAAA4000
0001AAA40000
ENDCHAR
STARTCHAR Oacute
ENCODING 211
SWIDTH 894 0
DWIDTH 21 0
BBX 21 26 0 0
BITMAP
000001940000
000002200000
000005900000
000009800000
000026000000
000000000000
0001AAA40000
002AAAAA4000
009A40199000
0260AA92A400
098640185900
1A6400022600
266000019A00
258000008940
298000005880
588000006880
588000006880
298000005880
258000008940
266000019A00
1A6400022600
098A40185900
0260AA92A400
009A40199000
002AAAAA4000
0001AAA40000
ENDCHAR
STARTCHAR Ocircumflex
ENCODING 212
SWIDTH 894 0
DWIDTH 21 0
BBX 21 26 0 0
BITMAP
000055000000
000198800000
000222600000
000992640000
001980980000
000000000000
0001AAA40000
002AAAAA4000
009A40199000
0260AA92A400
098640185900
1A6400022600
266000019A00
258000008940
298000005880
588000006880
588000006880
298000005880
258000008940
266000019A00
1A6400022600
098A40185900
0260AA92A400
009A40199000
002AAAAA4000
0001AAA40000
ENDCHAR
STARTCHAR Otilde
ENCODING 213
SWIDTH 894 0
DWIDTH 21 0
BBX 21 24 0 0
BITMAP
0002A4040000
000909080000
000802A40000
000000000000
0001AAA40000
002AAAAA4000
009A40199000
0260AA92A400
098640185900
1A6400022600
266000019A00
258000008940
298000005880
588000006880
588000006880
298000005880
258000008940
266000019A00
1A6400022600
098A40185900
0260AA92A400
009A40199000
002AAAAA4000
0001AAA40000
ENDCHAR
STARTCHAR Odieresis
ENCODING 214
SWIDTH 894 0
DWIDTH 21 0
BBX 21 26 0 0
BITMAP
000A80690000
002460820000
002021414000
002460820000
000A80690000
000000000000
0001AAA40000
002AAAAA4000
009A40199000
0260AA92A400
098640185900
1A6400022600
266000019A00
258000008940
298000005880
588000006880
588000006880
298000005880
258000008940
266000019A00
1A6400022600
098A40185900
0260AA92A400
009A40199000
002AAAAA4000
0001AAA40000
ENDCHAR
STARTCHAR multiply
ENCODING 215
SWIDTH 370 0
DWIDTH 9 0
BBX 7 7 1 1
BITMAP
2450
8594
1660
1980
6624
5884
1010
ENDCHAR
STARTCHAR Oslash
ENCODING 216
SWIDTH 894 0
DWIDTH 21 0
BBX 21 20 0 0
BITMAP
0001AAA48000
002AAA926500
009A40569800
0260AA499400
098640266000
1A6400598200
266001965600
258002660940
298009885880
58819A646880
588226606880
298998005880
255964008940
222650019A00
189980022600
05A600185900
02692A91A400
0998401A9000
0660AAAA4000
0051AAA40000
ENDCHAR
STARTCHAR Ugrave
ENCODING 217
SWIDTH 702 0
DWIDTH 17 0
BBX 15 26 1 0
BITMAP
02200000
01980000
00980000
00260000
00164000
00000000
9A000588
9A000588
9A000588
9A000588
9A000588
9A000588
9A000588
9A000588
9A000588
9A000588
9A000588
9A000588
9A000588
9A400598
99800894
689029A0
261A9260
09901980
06AAAA00
006AA400
ENDCHAR
STARTCHAR Uacute
ENCODING 218
SWIDTH 702 0
DWIDTH 17 0
BBX 15 26 1 0
BITMAP
00006500
00008800
00016400
00022000
00098000
00000000
9A000588
9A000588
9A000588
9A000588
9A000588
9A000588
9A000588
9A000588
9A000588
9A000588
9A000588
9A000588
9A000588
9A400598
99800894
689029A0
261A9260
09901980
06AAAA00
006AA400
ENDCHAR
STARTCHAR Ucircumflex
ENCODING 219
SWIDTH 702 0
DWIDTH 17 0
BBX 15 26 1 0
BITMAP
00264000
00552000
01986400
02208800
09902600
00000000
9A000588
9A000588
9A000588
9A000588
9A000588
9A000588
9A000588
9A000588
9A000588
9A000588
9A000588
9A000588
9A000588
9A400598
99800894
689029A0
261A9260
09901980
06AAAA00
006AA400
ENDCHAR
STARTCHAR Udieresis
ENCODING 220
SWIDTH 702 0
DWIDTH 17 0
BBX 15 26 1 0
BITMAP
06902A00
08245080
08148080
08245080
06902A00
00000000
9A000588
9A000588
9A000588
9A000588
9A000588
9A000588
9A000588
9A000588
9A000588
9A000588
9A000588
9A000588
9A000588
9A400598
99800894
689029A0
261A9260
09901980
06AAAA00
006AA400
ENDCHAR
STARTCHAR Yacute
ENCODING 221
SWIDTH 769 0
DWIDTH 18 0
BBX 18 26 0 0
BITMAP
0000098000
0000198000
0000220000
0000650000
0000880000
0000000000
5990002220
2220005590
1994009980
0998026200
0226065500
0195489800
0098866000
0026625000
0015648000
0008884000
0001550000
0001140000
0002290000
0002290000
0002290000
0002290000
0002290000
0002290000
0002290000
0002290000
ENDCHAR
STARTCHAR Thorn
ENCODING 222
SWIDTH 743 0
DWIDTH 18 0
BBX 17 20 1 0
BITMAP
9A00000000
9A00000000
9A00000000
9A00000000
9A2AAA8000
9A00006400
9A2AAA4900
9A2AAAA200
9A00009600
9A00009A40
9A00009A40
9A2AAA1600
9A00006200
9A2AAA4900
9A00006400
9A2AAA8000
9A00000000
9A00000000
9A00000000
9A00000000
ENDCHAR
STARTCHAR germandbls
ENCODING 223
SWIDTH 424 0
DWIDTH 10 0
BBX 9 10 1 0
BITMAP
2AA800
900600
8AA200
941600
94BA00
94A600
940940
940940
95A600
95A900
ENDCHAR
STARTCHAR agrave
ENCODING 224
SWIDTH 414 0
DWIDTH 10 0
BBX 10 14 0 0
BITMAP
010000
008000
009000
000000
016400
022800
025800
05A500
09A200
1A1600
26A940
260980
6AA990
980260
ENDCHAR
STARTCHAR aacute
ENCODING 225
SWIDTH 414 0
DWIDTH 10 0
BBX 10 14 0 0
BITMAP
000400
001800
002000
000000
016400
022800
025800
05A500
09A200
1A1600
26A940
260980
6AA990
980260
ENDCHAR
STARTCHAR acircumflex
ENCODING 226
SWIDTH 414 0
DWIDTH 10 0
BBX 10 14 0 0
BITMAP
004000
019000
020800
000000
016400
022800
025800
05A500
09A200
1A1600
26A940
260980
6AA990
980260
ENDCHAR
STARTCHAR atilde
ENCODING 227
SWIDTH 414 0
DWIDTH 10 0
BBX 10 13 0 0
BITMAP
068200
042900
000000
016400
022800
025800
05A500
09A200
1A1600
26A940
260980
6AA990
980260
ENDCHAR
STARTCHAR adieresis
ENCODING 228
SWIDTH 414 0
DWIDTH 10 0
BBX 10 14 0 0
BITMAP
024800
034C00
000000
000000
016400
022800
025800
05A500
09A200
1A1600
26A940
260980
6AA990
980260
ENDCHAR
STARTCHAR aring
ENCODING 229
SWIDTH 414 0
DWIDTH 10 0
BBX 10 14 0 0
BITMAP
00A000
015400
00A000
000000
016400
022800
025800
05A500
09A200
1A1600
26A940
260980
6AA990
980260
ENDCHAR
STARTCHAR ae
ENCODING 230
SWIDTH 593 0
DWIDTH 14 0
BBX 14 10 0 0
BITMAP
0023AAA0
005B0000
008DAAA0
01694000
0239EA80
0598EA80
08C88000
16498000
27ADAAA0
9905AAA0
ENDCHAR
STARTCHAR ccedilla
ENCODING 231
SWIDTH 446 0
DWIDTH 11 0
BBX 10 14 0 -4
BITMAP
01AA40
09A960
264140
250000
680000
680000
250000
264140
09A960
01AA40
002000
00A900
000600
00A800
ENDCHAR
STARTCHAR egrave
ENCODING 232
SWIDTH 363 0
DWIDTH 9 0
BBX 8 14 1 0
BITMAP
0400
0600
0200
0000
9AA9
9400
9AA9
9400
9AA4
9AA4
9400
9400
9AA9
9AA9
ENDCHAR
STARTCHAR eacute
ENCODING 233
SWIDTH 363 0
DWIDTH 9 0
BBX 8 14 1 0
BITMAP
0010
0060
0080
0000
9AA9
9400
9AA9
9400
9AA4
9AA4
9400
9400
9AA9
9AA9
ENDCHAR
STARTCHAR ecircumflex
ENCODING 234
SWIDTH 363 0
DWIDTH 9 0
BBX 8 14 1 0
BITMAP
0100
0540
1860
0000
9AA9
9400
9AA9
9400
9AA4
9AA4
9400
9400
9AA9
9AA9
ENDCHAR
STARTCHAR edieresis
ENCODING 235
SWIDTH 363 0
DWIDTH 9 0
BBX 8 14 1 0
BITMAP
0820
0D70
0000
0000
9AA9
9400
9AA9
9400
9AA4
9AA4
9400
9400
9AA9
9AA9
ENDCHAR
STARTCHAR igrave
ENCODING 236
SWIDTH 176 0
DWIDTH 4 0
BBX 4 14 0 0
BITMAP
40
60
24
00
25
25
25
25
25
25
25
25
25
25
ENDCHAR
STARTCHAR iacute
ENCODING 237
SWIDTH 176 0
DWIDTH 4 0
BBX 3 14 1 0
BITMAP
04
18
20
00
94
94
94
94
94
94
94
94
94
94
ENDCHAR
STARTCHAR icircumflex
ENCODING 238
SWIDTH 176 0
DWIDTH 4 0
BBX 4 14 0 0
BITMAP
10
64
82
00
25
25
25
25
25
25
25
25
25
25
ENDCHAR
STARTCHAR idieresis
ENCODING 239
SWIDTH 176 0
DWIDTH 4 0
BBX 5 14 0 0
BITMAP
9200
D340
0000
0000
2500
2500
2500
2500
2500
2500
2500
2500
2500
2500
ENDCHAR
STARTCHAR eth
ENCODING 240
SWIDTH 455 0
DWIDTH 11 0
BBX 10 10 0 0
BITMAP
26A900
250180
26A860
250620
000160
AA40A0
250160
250660
26A980
26A900
ENDCHAR
STARTCHAR ntilde
ENCODING 241
SWIDTH 444 0
DWIDTH 11 0
BBX 9 13 1 0
BITMAP
0A4800
14A400
000000
980880
9D0880
960880
998880
999880
966880
949C80
946880
942880
940C80
ENDCHAR
STARTCHAR ograve
ENCODING 242
SWIDTH 494 0
DWIDTH 12 0
BBX 11 14 0 0
BITMAP
004000
005000
002000
000000
01AA40
09AAA0
264194
250098
680058
680058
250098
264194
09AAA0
01AA40
ENDCHAR
STARTCHAR oacute
ENCODING 243
SWIDTH 494 0
DWIDTH 12 0
BBX 11 14 0 0
BITMAP
000100
000900
001800
000000
01AA40
09AAA0
264194
250098
680058
680058
250098
264194
09AAA0
01AA40
ENDCHAR
STARTCHAR ocircumflex
ENCODING 244
SWIDTH 494 0
DWIDTH 12 0
BBX 11 14 0 0
BITMAP
001000
005400
018600
000000
01AA40
09AAA0
264194
250098
680058
680058
250098
264194
09AAA0
01AA40
ENDCHAR
STARTCHAR otilde
ENCODING 245
SWIDTH 494 0
DWIDTH 12 0
BBX 11 13 0 0
BITMAP
01A040
021A00
000000
01AA40
09AAA0
264194
250098
680058
680058
250098
264194
09AAA0
01AA40
ENDCHAR
STARTCHAR odieresis
ENCODING 246
SWIDTH 494 0
DWIDTH 12 0
BBX 11 14 0 0
BITMAP
008600
00C700
000000
000000
01AA40
09AAA0
264194
250098
680058
680058
250098
264194
09AAA0
01AA40
ENDCHAR
STARTCHAR divide
ENCODING 247
SWIDTH 418 0
DWIDTH 10 0
BBX 8 9 1 0
BITMAP
0280
0280
0280
AAAA
0000
AAAA
0000
0280
0280
ENDCHAR
STARTCHAR oslash
ENCODING 248
SWIDTH 494 0
DWIDTH 12 0
BBX 11 10 0 0
BITMAP
01AA20
0AA860
264198
250658
681858
582058
258098
2241A4
092AA0
14AA40
ENDCHAR
STARTCHAR ugrave
ENCODING 249
SWIDTH 400 0
DWIDTH 10 0
BBX 8 14 1 0
BITMAP
0400
0500
0200
0000
9422
9422
9422
9422
9422
9422
9426
9825
6A98
1AA0
ENDCHAR
STARTCHAR uacute
ENCODING 250
SWIDTH 400 0
DWIDTH 10 0
BBX 8 14 1 0
BITMAP
0010
0080
0180
0000
9422
9422
9422
9422
9422
9422
9426
9825
6A98
1AA0
ENDCHAR
STARTCHAR ucircumflex
ENCODING 251
SWIDTH 400 0
DWIDTH 10 0
BBX 8 14 1 0
BITMAP
0100
0940
1860
0000
9422
9422
9422
9422
9422
9422
9426
9825
6A98
1AA0
ENDCHAR
STARTCHAR udieresis
ENCODING 252
SWIDTH 400 0
DWIDTH 10 0
BBX 8 14 1 0
BITMAP
1860
1C60
0000
0000
9422
9422
9422
9422
9422
9422
9426
9825
6A98
1AA0
ENDCHAR
STARTCHAR yacute
ENCODING 253
SWIDTH 422 0
DWIDTH 10 0
BBX 10 14 0 0
BITMAP
000400
001400
002000
000000
550660
220880
19A640
09A600
022800
011400
00A400
00A400
00A400
00A400
ENDCHAR
STARTCHAR thorn
ENCODING 254
SWIDTH 412 0
DWIDTH 10 0
BBX 8 10 1 0
BITMAP
9400
9400
9AA8
9AA6
941A
941A
9AA6
9AA8
9400
9400
ENDCHAR
STARTCHAR ydieresis
ENCODING 255
SWIDTH 422 0
DWIDTH 10 0
BBX 10 14 0 0
BITMAP
024800
034C00
000000
000000
550660
220880
19A640
09A600
022800
011400
00A400
00A400
00A400
00A400
ENDCHAR
STARTCHAR Edotaccent
ENCODING 278
SWIDTH 677 0
DWIDTH 16 0
BBX 15 24 1 0
BITMAP
0002D000
0001D000
00000000
00000000
9A2AAAA4
9A000000
9A2AAAA4
9A000000
9A2AAAA4
9A000000
9A000000
9A000000
9A2AAA80
9A000000
9A2AAA80
9A2AAA80
9A000000
9A000000
9A000000
9A000000
9A2AAAA4
9A000000
9A2AAAA4
9A2AAAA4
ENDCHAR
STARTCHAR edotaccent
ENCODING 279
SWIDTH 363 0
DWIDTH 9 0
BBX 8 14 1 0
BITMAP
03C0
0280
0000
0000
9AA9
9400
9AA9
9400
9AA4
9AA4
9400
9400
9AA9
9AA9
ENDCHAR
STARTCHAR dotlessi
ENCODING 305
SWIDTH 176 0
DWIDTH 4 0
BBX 3 10 1 0
BITMAP
94
94
94
94
94
94
94
94
94
94
ENDCHAR
STARTCHAR OE
ENCODING 338
SWIDTH 1221 0
DWIDTH 29 0
BBX 29 20 0 0
BITMAP
0001AA9002AAAA40
0029000000000000
0091AA9002AAAA40
021A400000000000
0961AA9002AAAA40
188A400000000000
2224000000000000
2650000000000000
2580000002AAA800
6880000000000000
6880000002AAA800
2980000002AAA800
2580000000000000
2660000000000000
1A24000000000000
098A400000000000
0261AA9002AAAA40
019A400000000000
002AAA9002AAAA40
0001AA9002AAAA40
ENDCHAR
STARTCHAR oe
ENCODING 339
SWIDTH 637 0
DWIDTH 15 0
BBX 15 10 0 0
BITMAP
01A90AA8
09000000
24A90AA8
22400000
59000AA0
58000AA0
29000000
26400000
09A90AA8
01A90AA8
ENDCHAR
STARTCHAR Wcircumflex
ENCODING 372
SWIDTH 972 0
DWIDTH 23 0
BBX 23 26 0 0
BITMAP
000015400000
000066200000
000088580000
000264990000
000660220000
000000000000
588009600588
29801A600994
2580166008A4
225022500960
166025841620
1A6069942650
096059882290
089489482580
059896295880
0698A6255940
025866224A40
022525561600
0166589A6200
016258995500
009618588900
008954258800
009950269400
005880265000
002580162000
002690096000
ENDCHAR
STARTCHAR wcircumflex
ENCODING 373
SWIDTH 521 0
DWIDTH 13 0
BBX 12 14 0 0
BITMAP
001400
006100
008200
000000
882616
582626
255A22
259A25
229998
169DD8
0969C8
09A594
08E270
059270
ENDCHAR
STARTCHAR Ycircumflex
ENCODING 374
SWIDTH 769 0
DWIDTH 18 0
BBX 18 26 0 0
BITMAP
0002200000
0009950000
0019964000
0022088000
0098066000
0000000000
5990002220
2220005590
1994009980
0998026200
0226065500
0195489800
0098866000
0026625000
0015648000
0008884000
0001550000
0001140000
0002290000
0002290000
0002290000
0002290000
0002290000
0002290000
0002290000
0002290000
ENDCHAR
STARTCHAR ycircumflex
ENCODING 375
SWIDTH 422 0
DWIDTH 10 0
BBX 10 14 0 0
BITMAP
004000
019000
020800
000000
550660
220880
19A640
09A600
022800
011400
00A400
00A400
00A400
00A400
ENDCHAR
STARTCHAR Ydieresis
ENCODING 376
SWIDTH 769 0
DWIDTH 18 0
BBX 18 26 0 0
BITMAP
006902A000
0082091800
0141480800
0082091800
006902A000
0000000000
5990002220
2220005590
1994009980
0998026200
0226065500
0195489800
0098866000
0026625000
0015648000
0008884000
0001550000
0001140000
0002290000
0002290000
0002290000
0002290000
0002290000
0002290000
0002290000
0002290000
ENDCHAR
STARTCHAR circumflex
ENCODING 710
SWIDTH 298 0
DWIDTH 7 0
BBX 5 3 1 11
BITMAP
0400
2500
5180
ENDCHAR
STARTCHAR dotaccent
ENCODING 729
SWIDTH 212 0
DWIDTH 5 0
BBX 3 2 1 12
BITMAP
74
74
ENDCHAR
STARTCHAR ring
ENCODING 730
SWIDTH 212 0
DWIDTH 5 0
BBX 3 3 1 11
BITMAP
64
88
64
ENDCHAR
STARTCHAR tilde
ENCODING 732
SWIDTH 329 0
DWIDTH 8 0
BBX 6 2 1 11
BITMAP
6810
8690
ENDCHAR
STARTCHAR gravecomb
ENCODING 768
SWIDTH 0 0
DWIDTH 0 0
BBX 3 3 1 11
BITMAP
40
60
24
ENDCHAR
STARTCHAR acutecomb
ENCODING 769
SWIDTH 0 0
DWIDTH 0 0
BBX 3 3 1 11
BITMAP
14
20
90
ENDCHAR
STARTCHAR uni0302
ENCODING 770
SWIDTH 0 0
DWIDTH 0 0
BBX 5 3 1 11
BITMAP
0400
2500
5180
ENDCHAR
STARTCHAR tildecomb
ENCODING 771
SWIDTH 0 0
DWIDTH 0 0
BBX 6 2 1 11
BITMAP
6810
8690
ENDCHAR
STARTCHAR uni0307
ENCODING 775
SWIDTH 0 0
DWIDTH 0 0
BBX 3 2 1 12
BITMAP
74
74
ENDCHAR
STARTCHAR uni0308
ENCODING 776
SWIDTH 0 0
DWIDTH 0 0
BBX 5 2 1 12
BITMAP
5240
A240
ENDCHAR
STARTCHAR uni030A
ENCODING 778
SWIDTH 0 0
DWIDTH 0 0
BBX 3 3 1 11
BITMAP
64
88
64
ENDCHAR
STARTCHAR uni0327
ENCODING 807
SWIDTH 0 0
DWIDTH 0 0
BBX 4 4 1 -4
BITMAP
24
7A
02
69
ENDCHAR
STARTCHAR Wgrave
ENCODING 7808
SWIDTH 972 0
DWIDTH 23 0
BBX 23 26 0 0
BITMAP
000022000000
000019400000
000009800000
000002600000
000002640000
000000000000
588009600588
29801A600994
2580166008A4
225022500960
166025841620
1A6069942650
096059882290
089489482580
059896295880
0698A6255940
025866224A40
022525561600
0166589A6200
016258995500
009618588900
008954258800
009950269400
005880265000
002580162000
002690096000
ENDCHAR
STARTCHAR wgrave
ENCODING 7809
SWIDTH 521 0
DWIDTH 13 0
BBX 12 14 0 0
BITMAP
001000
001800
000800
000000
882616
582626
255A22
259A25
229998
169DD8
0969C8
09A594
08E270
059270
ENDCHAR
STARTCHAR Wacute
ENCODING 7810
SWIDTH 972 0
DWIDTH 23 0
BBX 23 26 0 0
BITMAP
000002600000
000006500000
000008800000
000016400000
000022000000
000000000000
588009600588
29801A600994
2580166008A4
225022500960
166025841620
1A6069942650
096059882290
089489482580
059896295880
0698A6255940
025866224A40
022525561600
0166589A6200
016258995500
009618588900
008954258800
009950269400
005880265000
002580162000
002690096000
ENDCHAR
STARTCHAR wacute
ENCODING 7811
SWIDTH 521 0
DWIDTH 13 0
BBX 12 14 0 0
BITMAP
000400
000800
002400
000000
882616
582626
255A22
259A25
229998
169DD8
0969C8
09A594
08E270
059270
ENDCHAR
STARTCHAR Wdieresis
ENCODING 7812
SWIDTH 972 0
DWIDTH 23 0
BBX 23 26 0 0
BITMAP
0002A01A4000
000918608000
000808509000
000918608000
0002A01A4000
000000000000
588009600588
29801A600994
2580166008A4
225022500960
166025841620
1A6069942650
096059882290
089489482580
059896295880
0698A6255940
025866224A40
022525561600
0166589A6200
016258995500
009618588900
008954258800
009950269400
005880265000
002580162000
002690096000
ENDCHAR
STARTCHAR wdieresis
ENCODING 7813
SWIDTH 521 0
DWIDTH 13 0
BBX 12 14 0 0
BITMAP
009240
009340
000000
000000
882616
582626
255A22
259A25
229998
169DD8
0969C8
09A594
08E270
059270
ENDCHAR
STARTCHAR uni1E9E
ENCODING 7838
SWIDTH 784 0
DWIDTH 19 0
BBX 17 20 1 0
BITMAP
9A2AAAA800
9A00000000
9A2AAAA800
9A00000000
9A2AAAA800
9A00099400
9A00262000
9A00659000
9A00888000
9A01965900
9A02266200
9A05985940
9A00005880
9A00002580
9A00002580
9A00005980
9A0AAA8940
9A00002600
9A0AAA9900
9A0AAAA000
ENDCHAR
STARTCHAR Ygrave
ENCODING 7922
SWIDTH 769 0
DWIDTH 18 0
BBX 18 26 0 0
BITMAP
0006500000
0002600000
0000980000
0000990000
0000220000
0000000000
5990002220
2220005590
1994009980
0998026200
0226065500
0195489800
0098866000
0026625000
0015648000
0008884000
0001550000
0001140000
0002290000
0002290000
0002290000
0002290000
0002290000
0002290000
0002290000
0002290000
ENDCHAR
STARTCHAR ygrave
ENCODING 7923
SWIDTH 422 0
DWIDTH 10 0
BBX 10 14 0 0
BITMAP
004000
005000
002000
000000
550660
220880
19A640
09A600
022800
011400
00A400
00A400
00A400
00A400
ENDCHAR
STARTCHAR endash
ENCODING 8211
SWIDTH 507 0
DWIDTH 12 0
BBX 10 3 1 4
BITMAP
AAAAA0
000000
AAAAA0
ENDCHAR
STARTCHAR emdash
ENCODING 8212
SWIDTH 552 0
DWIDTH 13 0
BBX 11 3 1 4
BITMAP
AAAAA8
000000
AAAAA8
ENDCHAR
STARTCHAR quoteleft
ENCODING 8216
SWIDTH 146 0
DWIDTH 4 0
BBX 3 3 0 7
BITMAP
50
58
58
ENDCHAR
STARTCHAR quoteright
ENCODING 8217
SWIDTH 146 0
DWIDTH 4 0
BBX 3 3 0 7
BITMAP
58
58
08
ENDCHAR
STARTCHAR quotesinglbase
ENCODING 8218
SWIDTH 146 0
DWIDTH 4 0
BBX 3 3 0 -3
BITMAP
58
58
08
ENDCHAR
STARTCHAR quotedblleft
ENCODING 8220
SWIDTH 297 0
DWIDTH 7 0
BBX 7 3 0 7
BITMAP
5080
5884
5898
ENDCHAR
STARTCHAR quotedblright
ENCODING 8221
SWIDTH 297 0
DWIDTH 7 0
BBX 7 3 0 7
BITMAP
5898
5898
0818
ENDCHAR
STARTCHAR quotedblbase
ENCODING 8222
SWIDTH 297 0
DWIDTH 7 0
BBX 7 3 0 -3
BITMAP
5898
5898
0818
ENDCHAR
STARTCHAR bullet
ENCODING 8226
SWIDTH 302 0
DWIDTH 7 0
BBX 5 5 1 2
BITMAP
2A00
9180
8080
9180
2A00
ENDCHAR
STARTCHAR ellipsis
ENCODING 8230
SWIDTH 528 0
DWIDTH 13 0
BBX 11 2 1 0
BITMAP
949488
949488
ENDCHAR
STARTCHAR guilsinglleft
ENCODING 8249
SWIDTH 178 0
DWIDTH 4 0
BBX 3 4 1 3
BITMAP
60
54
50
60
ENDCHAR
STARTCHAR guilsinglright
ENCODING 8250
SWIDTH 178 0
DWIDTH 4 0
BBX 3 6 1 2
BITMAP
40
A0
50
54
A0
40
ENDCHAR
STARTCHAR fraction
ENCODING 8260
SWIDTH 362 0
DWIDTH 9 0
BBX 8 10 0 0
BITMAP
0026
0026
0098
0194
0220
0650
0880
1A40
2200
5900
ENDCHAR
STARTCHAR uni2074
ENCODING 8308
SWIDTH 204 0
DWIDTH 5 0
BBX 4 5 1 5
BITMAP
64
A0
54
59
59
ENDCHAR
STARTCHAR Euro
ENCODING 8364
SWIDTH 462 0
DWIDTH 11 0
BBX 10 10 0 0
BITMAP
01AA90
066A60
198180
000000
AA9000
AA9000
000000
198180
066A60
01AA90
ENDCHAR
STARTCHAR trademark
ENCODING 8482
SWIDTH 461 0
DWIDTH 11 0
BBX 10 5 0 5
BITMAP
BF2460
0029A0
182760
182020
182020
ENDCHAR
STARTCHAR minus
ENCODING 8722
SWIDTH 420 0
DWIDTH 10 0
BBX 8 3 1 4
BITMAP
FFFF
0000
FFFF
ENDCHAR
STARTCHAR uni2215
ENCODING 8725
SWIDTH 278 0
DWIDTH 7 0
BBX 6 10 1 0
BITMAP
0150
0580
0880
0940
1600
2200
2500
5800
8800
9400
ENDCHAR
STARTCHAR .notdef
ENCODING -1
SWIDTH 500 0
DWIDTH 12 0
BBX 10 28 1 -6
BITMAP
BFFFE0
A555A0
900060
900060
900060
900060
900060
900060
900060
900060
900060
900060
900060
900060
900060
900060
900060
900060
900060
900060
900060
900060
900060
900060
900060
900060
BFFFE0
155540
ENDCHAR
STARTCHAR NULL
ENCODING -1
SWIDTH 600 0
DWIDTH 14 0
BBX 1 1 0 0
BITMAP
00
ENDCHAR
STARTCHAR acutecomb.case
ENCODING -1
SWIDTH 0 0
DWIDTH 0 0
BBX 6 5 1 21
BITMAP
0650
0880
1640
2200
9900
ENDCHAR
STARTCHAR ampersand.case
ENCODING -1
SWIDTH 797 0
DWIDTH 19 0
BBX 18 20 0 0
BITMAP
000AA90000
0026AA4000
0098069000
0161A26000
0266096000
0225096000
0166266000
019A599000
0089864000
0162650000
0915A40000
1589990840
2262262650
6981998950
5880959180
2990226100
262A889800
1980566600
066A926640
00AAA48880
ENDCHAR
STARTCHAR asciicircum.case
ENCODING -1
SWIDTH 540 0
DWIDTH 13 0
BBX 13 10 0 10
BITMAP
00080000
00250000
00650000
00888000
01659000
02222000
09919400
09809800
26002600
65001640
ENDCHAR
STARTCHAR asciitilde.case
ENCODING -1
SWIDTH 640 0
DWIDTH 15 0
BBX 13 5 1 8
BITMAP
6AA50040
6AA6AA40
901A4180
6AA9AA40
4006AA40
ENDCHAR
STARTCHAR asterisk.case
ENCODING -1
SWIDTH 482 0
DWIDTH 12 0
BBX 10 9 1 11
BITMAP
016000
016000
256180
180500
640290
040000
080500
266600
060800
ENDCHAR
STARTCHAR at.case
ENCODING -1
SWIDTH 915 0
DWIDTH 22 0
BBX 20 20 1 0
BITMAP
0006AA9000
006AAA9A00
02A9006980
0990000260
1A40000098
2601AA9429
690AA99426
9816419416
982500941A
986800941A
9468009416
9825009416
9816418822
690AA98695
2601AA6018
1A40000A90
0990000000
02A9006400
006AAA9400
0006AAA400
ENDCHAR
STARTCHAR backslash.case
ENCODING -1
SWIDTH 504 0
DWIDTH 12 0
BBX 12 23 0 -1
BITMAP
444000
588000
258000
225000
162000
096000
089400
058800
025800
022500
016200
009600
008940
005880
002580
002250
001620
000960
000894
000588
000258
000225
000162
ENDCHAR
STARTCHAR bar.case
ENCODING -1
SWIDTH 262 0
DWIDTH 6 0
BBX 4 23 1 -1
BITMAP
45
9A
9A
9A
9A
9A
9A
9A
9A
9A
9A
9A
9A
9A
9A
9A
9A
9A
9A
9A
9A
9A
9A
ENDCHAR
STARTCHAR braceleft.case
ENCODING -1
SWIDTH 504 0
DWIDTH 12 0
BBX 10 23 1 -2
BITMAP
0258A0
0258A0
025800
0258A0
025800
025800
025800
025800
025800
A65800
025800
A65800
A65800
025800
025800
025800
025800
025800
025800
0258A0
0258A0
025800
0258A0
ENDCHAR
STARTCHAR braceright.case
ENCODING -1
SWIDTH 506 0
DWIDTH 12 0
BBX 10 23 1 -2
BITMAP
A65800
025800
A65800
A65800
025800
025800
025800
025800
025800
025800
0258A0
0258A0
025800
0258A0
025800
025800
025800
025800
025800
A65800
025800
A65800
A65800
ENDCHAR
STARTCHAR bracketleft.case
ENCODING -1
SWIDTH 453 0
DWIDTH 11 0
BBX 9 23 1 -2
BITMAP
962A80
9A2A80
9A0000
9A2A80
9A0000
9A0000
9A0000
9A0000
9A0000
9A0000
9A0000
9A0000
9A0000
9A0000
9A0000
9A0000
9A0000
9A0000
9A0000
9A2A80
9A2A80
9A0000
962A80
ENDCHAR
STARTCHAR bracketright.case
ENCODING -1
SWIDTH 453 0
DWIDTH 11 0
BBX 9 23 1 -2
BITMAP
AA5880
006880
AA6880
AA6880
006880
006880
006880
006880
006880
006880
006880
006880
006880
006880
006880
006880
006880
006880
006880
AA6880
006880
AA6880
AA5880
ENDCHAR
STARTCHAR brokenbar.case
ENCODING -1
SWIDTH 262 0
DWIDTH 6 0
BBX 4 23 1 0
BITMAP
45
9A
9A
9A
9A
9A
9A
9A
9A
9A
45
00
00
9A
9A
9A
9A
9A
9A
9A
9A
9A
9A
ENDCHAR
STARTCHAR bullet.case
ENCODING -1
SWIDTH 503 0
DWIDTH 12 0
BBX 10 10 1 5
BITMAP
02A900
190240
22A890
990620
880260
880260
990620
22A890
190240
02A900
ENDCHAR
STARTCHAR uni0327.case
ENCODING -1
SWIDTH 0 0
DWIDTH 0 0
BBX 6 6 1 -6
BITMAP
0900
1800
2A80
1050
4050
6A40
ENDCHAR
STARTCHAR cent.case
ENCODING -1
SWIDTH 577 0
DWIDTH 14 0
BBX 12 23 1 -1
BITMAP
001600
001600
001600
001600
000000
006AA4
06AA9A
0A8064
262A84
589050
994000
9A0000
8A0000
894000
569050
21AA94
186A96
064018
006A90
001600
001600
001600
001600
ENDCHAR
STARTCHAR uni0302.case
ENCODING -1
SWIDTH 0 0
DWIDTH 0 0
BBX 10 5 1 21
BITMAP
026400
066200
088580
264990
550220
ENDCHAR
STARTCHAR colon.case
ENCODING -1
SWIDTH 262 0
DWIDTH 6 0
BBX 4 13 1 0
BITMAP
9A
9A
9A
9A
00
00
00
00
00
9A
9A
9A
9A
ENDCHAR
STARTCHAR comma.case
ENCODING -1
SWIDTH 338 0
DWIDTH 8 0
BBX 6 6 1 -2
BITMAP
1620
2650
2690
2580
5880
8940
ENDCHAR
STARTCHAR copyright.case
ENCODING -1
SWIDTH 895 0
DWIDTH 21 0
BBX 21 20 0 0
BITMAP
0001AAA40000
002AAAAA4000
009A40199000
02640002A400
098000009800
1A406A902600
2602AA981600
250590600940
290940000880
680A40000880
680A40000880
290940000980
250590500940
2602AA981A00
1A406A902600
098000009800
02640002A400
009A40199000
002AAAAA4000
0001AAA40000
ENDCHAR
STARTCHAR currency.case
ENCODING -1
SWIDTH 676 0
DWIDTH 16 0
BBX 14 15 1 1
BITMAP
09000200
22400980
48401650
612A8560
24906580
025A4800
02605900
02502500
02605900
125A4840
20906490
952A8620
59401580
16000940
08000100
ENDCHAR
STARTCHAR degree.case
ENCODING -1
SWIDTH 413 0
DWIDTH 10 0
BBX 9 9 0 11
BITMAP
06A800
1AA640
260980
280580
580580
260980
21A580
190600
02A800
ENDCHAR
STARTCHAR uni0308.case
ENCODING -1
SWIDTH 0 0
DWIDTH 0 0
BBX 12 5 1 21
BITMAP
2A01A4
918208
808505
918208
2A01A4
ENDCHAR
STARTCHAR divide.case
ENCODING -1
SWIDTH 618 0
DWIDTH 15 0
BBX 13 13 1 3
BITMAP
001A0000
00214000
00214000
001A0000
AAAAAA40
00000000
AAAAAA40
AAAAAA40
00000000
001A0000
00214000
00214000
001A0000
ENDCHAR
STARTCHAR uni2215.case
ENCODING -1
SWIDTH 483 0
DWIDTH 12 0
BBX 11 20 0 0
BITMAP
000588
000894
000960
001620
002250
002580
005880
008940
009600
016200
022500
025800
058800
089400
096000
162000
226000
259000
598000
998000
ENDCHAR
STARTCHAR dollar.case
ENCODING -1
SWIDTH 660 0
DWIDTH 16 0
BBX 14 23 1 -1
BITMAP
00050000
00160000
01561000
0A561A00
25962580
99560990
99962620
A6160900
96460000
89690000
6295A400
192A4A00
01A46580
001A9660
00152560
011609A0
66161960
99962620
56561990
28561240
06962900
00160000
00160000
ENDCHAR
STARTCHAR eight.case
ENCODING -1
SWIDTH 561 0
DWIDTH 13 0
BBX 13 20 0 0
BITMAP
00AA9000
06AAA800
19806600
262A5A00
29908940
58805880
59805880
26604940
225A4600
09686500
02968900
21696600
25819940
68805880
58805880
29908940
262A5A00
19806600
066AA800
00AA9000
ENDCHAR
STARTCHAR ellipsis.case
ENCODING -1
SWIDTH 766 0
DWIDTH 18 0
BBX 17 4 1 0
BITMAP
9A09A08A40
9A09A08A40
9A09A08A40
9A09A08A40
ENDCHAR
STARTCHAR emdash.case
ENCODING -1
SWIDTH 790 0
DWIDTH 19 0
BBX 17 4 1 8
BITMAP
AAAAAAAA80
0000000000
AAAAAAAA80
AAAAAAAA80
ENDCHAR
STARTCHAR endash.case
ENCODING -1
SWIDTH 721 0
DWIDTH 17 0
BBX 15 4 1 8
BITMAP
AAAAAAA8
00000000
AAAAAAA8
AAAAAAA8
ENDCHAR
STARTCHAR equal.case
ENCODING -1
SWIDTH 618 0
DWIDTH 15 0
BBX 13 11 1 4
BITMAP
AAAAAA40
00000000
AAAAAA40
AAAAAA40
00000000
00000000
00000000
AAAAAA40
AAAAAA40
00000000
AAAAAA40
ENDCHAR
STARTCHAR Euro.case
ENCODING -1
SWIDTH 767 0
DWIDTH 18 0
BBX 18 20 0 0
BITMAP
0000AAA400
000AAA9640
0026801990
00992A9240
0165902800
0266000400
0698000000
0040000000
AAAAAA0000
0000000000
AAAAAA0000
AAAAAA0000
0040000000
0698000000
0266000400
0165902800
00992A9240
0026801990
000AAA9640
0001AAA400
ENDCHAR
STARTCHAR exclam.case
ENCODING -1
SWIDTH 262 0
DWIDTH 6 0
BBX 4 20 1 0
BITMAP
9A
9A
9A
9A
9A
9A
9A
9A
9A
9A
9A
9A
9A
9A
45
00
9A
9A
9A
9A
ENDCHAR
STARTCHAR exclamdown.case
ENCODING -1
SWIDTH 262 0
DWIDTH 6 0
BBX 4 20 1 -5
BITMAP
96
96
96
96
00
45
96
96
96
96
96
96
96
96
96
96
96
96
96
96
ENDCHAR
STARTCHAR five.case
ENCODING -1
SWIDTH 558 0
DWIDTH 13 0
BBX 13 20 0 0
BITMAP
2AAAAA00
00000000
2AAAAA00
2AAAAA00
00000000
22800000
22800000
22800000
228A9000
22806800
228A8600
228A6200
00009940
00005880
68805880
25908940
262A5A00
19806600
066AA800
00AA9000
ENDCHAR
STARTCHAR four.case
ENCODING -1
SWIDTH 585 0
DWIDTH 14 0
BBX 14 20 0 0
BITMAP
00089800
00196000
00226000
00258000
00988000
00964000
02620000
02650000
05880000
08940000
16626800
22626800
00026800
6AA66890
6AA66890
00026800
6AA66890
00026800
00026800
00026800
ENDCHAR
STARTCHAR uni2074.case
ENCODING -1
SWIDTH 312 0
DWIDTH 7 0
BBX 7 8 0 12
BITMAP
0650
0880
1940
2200
0098
6998
6998
0098
ENDCHAR
STARTCHAR fraction.case
ENCODING -1
SWIDTH 655 0
DWIDTH 16 0
BBX 14 20 1 0
BITMAP
00000590
00000880
00001640
00002600
00009800
00009800
00026000
00026000
00098000
00194000
00220000
00650000
00880000
01640000
02200000
05900000
08800000
16000000
26000000
98000000
ENDCHAR
STARTCHAR gravecomb.case
ENCODING -1
SWIDTH 0 0
DWIDTH 0 0
BBX 6 5 1 21
BITMAP
9900
2200
1640
0880
0660
ENDCHAR
STARTCHAR greater.case
ENCODING -1
SWIDTH 677 0
DWIDTH 16 0
BBX 14 17 1 1
BITMAP
40000000
64000000
8A000000
65900000
86590000
68A28000
06596800
00659640
000A2960
00619640
02891800
19658000
965A0000
28A00000
96400000
64000000
80000000
ENDCHAR
STARTCHAR guillemotleft.case
ENCODING -1
SWIDTH 666 0
DWIDTH 16 0
BBX 14 13 1 3
BITMAP
00200010
01900180
0A200A20
25902580
46204660
64906080
89009900
65806580
8A608960
25906580
0A200A60
01900180
00200020
ENDCHAR
STARTCHAR guillemotright.case
ENCODING -1
SWIDTH 666 0
DWIDTH 16 0
BBX 14 13 1 3
BITMAP
40008000
64006400
8A008A00
25806580
99108910
21906190
06600A20
25902590
96209A20
25906580
9A008A00
24006400
80008000
ENDCHAR
STARTCHAR guilsinglleft.case
ENCODING -1
SWIDTH 338 0
DWIDTH 8 0
BBX 6 13 1 3
BITMAP
0020
0190
0A20
2590
4620
6490
8900
6580
8A60
2590
0A20
0190
0020
ENDCHAR
STARTCHAR guilsinglright.case
ENCODING -1
SWIDTH 338 0
DWIDTH 8 0
BBX 6 13 1 3
BITMAP
4000
6400
8A00
2580
9910
2190
0660
2590
9620
2590
9A00
2400
8000
ENDCHAR
STARTCHAR hyphen.case
ENCODING -1
SWIDTH 445 0
DWIDTH 11 0
BBX 9 4 1 8
BITMAP
AAAA40
000000
AAAA40
AAAA40
ENDCHAR
STARTCHAR less.case
ENCODING -1
SWIDTH 677 0
DWIDTH 16 0
BBX 15 17 1 1
BITMAP
00000014
00000190
00000A24
0000A590
00065964
0025A280
01861900
09649000
A2864000
1968A000
01965900
00296590
00028A24
00006590
00000654
000000A0
00000010
ENDCHAR
STARTCHAR logicalnot.case
ENCODING -1
SWIDTH 618 0
DWIDTH 15 0
BBX 13 9 1 3
BITMAP
AAAAAA40
00000000
AAAAAA40
AAAAAA40
00000000
00005880
00005880
00005880
00005880
ENDCHAR
STARTCHAR uni00B5.case
ENCODING -1
SWIDTH 792 0
DWIDTH 19 0
BBX 18 25 1 -5
BITMAP
9A00058800
9A00058800
9A00058800
9A00058800
9A00058800
9A00058800
9A00058800
9A00058800
9A00058800
9A00058800
9A00058800
9A00058800
9A00058800
9A00059800
9A00089400
9A1029A200
9A1A926190
9A10198A00
9A2AAA1590
9A2AA40A90
9A00000000
9A00000000
9A00000000
9A00000000
9600000000
ENDCHAR
STARTCHAR minus.case
ENCODING -1
SWIDTH 618 0
DWIDTH 15 0
BBX 13 4 1 8
BITMAP
AAAAAA40
00000000
AAAAAA40
AAAAAA40
ENDCHAR
STARTCHAR multiply.case
ENCODING -1
SWIDTH 580 0
DWIDTH 14 0
BBX 12 12 1 4
BITMAP
010000
024080
289264
2A0995
1A2658
009960
026580
099624
265889
9962A1
2581A4
060050
ENDCHAR
STARTCHAR nine.case
ENCODING -1
SWIDTH 558 0
DWIDTH 13 0
BBX 13 20 0 -1
BITMAP
01AA9000
06AAA800
1A806600
262A5A00
29908940
58805980
59806880
26906880
226A6880
186A6880
06406880
006A6880
00006880
00006880
58805880
25908940
262A5A00
19806600
066AA800
00AA9000
ENDCHAR
STARTCHAR numbersign.case
ENCODING -1
SWIDTH 776 0
DWIDTH 19 0
BBX 17 20 1 0
BITMAP
0096025800
0096025800
00A6029800
0162000000
29656AAA40
0265000000
2629AAAA40
0258000000
2658AAAA40
0298051000
01441A2000
AAAA966500
0000265000
AAAA625900
AAAA668900
0000258000
0A60298000
1620588000
1650594000
2250994000
ENDCHAR
STARTCHAR one.case
ENCODING -1
SWIDTH 378 0
DWIDTH 9 0
BBX 8 20 0 0
BITMAP
6896
0096
6896
0096
6896
0096
0096
0096
0096
0096
0096
0096
0096
0096
0096
0096
0096
0096
0096
0096
ENDCHAR
STARTCHAR onehalf.case
ENCODING -1
SWIDTH 735 0
DWIDTH 18 0
BBX 16 20 1 0
BITMAP
A2800164
A2800260
02800580
02800980
02802600
02802600
02809800
02809400
01422000
00065000
00088000
001942A4
00220808
005909A5
00880569
01640198
02600510
09801AA9
09800000
26001AA9
ENDCHAR
STARTCHAR onequarter.case
ENCODING -1
SWIDTH 722 0
DWIDTH 17 0
BBX 15 20 1 0
BITMAP
A2800164
A2800260
02800580
02800980
02802600
02802600
02809800
02809400
01422000
00065000
00088000
00194220
00220590
00590980
00881600
01640068
02602A68
09802A68
09800068
26000000
ENDCHAR
STARTCHAR uni00B9.case
ENCODING -1
SWIDTH 306 0
DWIDTH 7 0
BBX 5 9 1 11
BITMAP
A280
A280
0280
0280
0280
0280
0280
0280
0140
ENDCHAR
STARTCHAR ordfeminine.case
ENCODING -1
SWIDTH 456 0
DWIDTH 11 0
BBX 9 9 1 11
BITMAP
026000
06A400
09C800
099800
162500
23B200
251600
5AA940
440440
ENDCHAR
STARTCHAR ordmasculine.case
ENCODING -1
SWIDTH 489 0
DWIDTH 12 0
BBX 10 9 1 11
BITMAP
06A900
2AA640
690980
880250
940250
880250
690980
1AAA40
06A800
ENDCHAR
STARTCHAR paragraph.case
ENCODING -1
SWIDTH 893 0
DWIDTH 21 0
BBX 21 20 0 0
BITMAP
01AAAAAAAA40
0A0000000000
146AAAAAAA40
224000000000
696AAAAAAA40
588000100400
598001650A40
698001650A40
22AAA9650A40
18AAA9650A40
064001650A40
00AAA9650A40
000001650A40
000001650A40
000001650A40
000001650A40
000001650A40
000001650A40
000001650A40
000001650A40
ENDCHAR
STARTCHAR parenleft.case
ENCODING -1
SWIDTH 290 0
DWIDTH 7 0
BBX 8 23 0 -1
BITMAP
0115
0268
0598
09A4
0960
1660
2250
2680
2580
2980
6880
5880
5880
6880
2980
2580
2290
2650
1A60
0960
0994
0298
0265
ENDCHAR
STARTCHAR parenright.case
ENCODING -1
SWIDTH 290 0
DWIDTH 7 0
BBX 8 23 -1 -3
BITMAP
5980
2580
1650
0A60
09A0
0594
0588
0258
0258
0268
0229
0229
0268
0268
0258
0298
0598
0994
0960
1A60
2690
2980
5440
ENDCHAR
STARTCHAR percent.case
ENCODING -1
SWIDTH 827 0
DWIDTH 20 0
BBX 19 20 0 0
BITMAP
06A9000988
19A6401964
2609802260
6805809980
6805809980
2609826200
1AAA465900
06A8089800
0000266000
0000665000
0009880000
0019942A80
0022219060
0059921A58
0099866088
0262058058
0659068058
0888026098
166001AA60
2660006A80
ENDCHAR
STARTCHAR period.case
ENCODING -1
SWIDTH 262 0
DWIDTH 6 0
BBX 4 4 1 0
BITMAP
9A
9A
9A
9A
ENDCHAR
STARTCHAR periodcentered.case
ENCODING -1
SWIDTH 262 0
DWIDTH 6 0
BBX 4 4 1 8
BITMAP
9A
9A
9A
9A
ENDCHAR
STARTCHAR plus.case
ENCODING -1
SWIDTH 616 0
DWIDTH 15 0
BBX 13 13 1 3
BITMAP
00494000
00994000
00994000
00994000
A9996A40
00994000
A9996A40
A9996A40
00994000
00994000
00994000
00994000
00494000
ENDCHAR
STARTCHAR plusminus.case
ENCODING -1
SWIDTH 618 0
DWIDTH 15 0
BBX 13 17 1 0
BITMAP
00494000
00994000
00994000
00994000
A9996A40
00994000
A9996A40
A9996A40
00994000
00994000
00994000
00994000
00494000
AAAAAA40
00000000
AAAAAA40
AAAAAA40
ENDCHAR
STARTCHAR question.case
ENCODING -1
SWIDTH 598 0
DWIDTH 14 0
BBX 12 20 1 0
BITMAP
01AA80
090064
24AA48
66AA96
8981A2
8A4096
00009A
000256
000926
002598
006660
008980
008A40
009600
004500
000000
009A00
009A00
009A00
009A00
ENDCHAR
STARTCHAR questiondown.case
ENCODING -1
SWIDTH 598 0
DWIDTH 14 0
BBX 12 20 1 -5
BITMAP
008A00
008A00
008A00
008A00
000000
004500
008A40
009A00
016600
096600
264800
692000
988000
9A4000
8A409A
8981A6
66AAA6
24AA48
090064
01AA80
ENDCHAR
STARTCHAR quotedbl.case
ENCODING -1
SWIDTH 464 0
DWIDTH 11 0
BBX 11 6 0 14
BITMAP
594598
594598
594598
594598
594598
594598
ENDCHAR
STARTCHAR quotedblbase.case
ENCODING -1
SWIDTH 464 0
DWIDTH 11 0
BBX 11 6 0 -1
BITMAP
594598
594598
594598
594598
094098
094098
ENDCHAR
STARTCHAR quotedblleft.case
ENCODING -1
SWIDTH 464 0
DWIDTH 11 0
BBX 11 6 0 12
BITMAP
580580
580580
598598
598598
598598
598598
ENDCHAR
STARTCHAR quotedblright.case
ENCODING -1
SWIDTH 464 0
DWIDTH 11 0
BBX 11 6 0 14
BITMAP
594598
594598
594598
594598
094098
094098
ENDCHAR
STARTCHAR quoteleft.case
ENCODING -1
SWIDTH 212 0
DWIDTH 5 0
BBX 5 6 0 12
BITMAP
5800
5800
5980
5980
5980
5980
ENDCHAR
STARTCHAR quoteright.case
ENCODING -1
SWIDTH 212 0
DWIDTH 5 0
BBX 5 6 0 14
BITMAP
5940
5940
5940
5940
0940
0940
ENDCHAR
STARTCHAR quotesinglbase.case
ENCODING -1
SWIDTH 212 0
DWIDTH 5 0
BBX 5 6 0 -1
BITMAP
5940
5940
5940
5940
0940
0940
ENDCHAR
STARTCHAR quotesingle.case
ENCODING -1
SWIDTH 212 0
DWIDTH 5 0
BBX 5 6 0 14
BITMAP
5940
5940
5940
5940
5940
5940
ENDCHAR
STARTCHAR registered.case
ENCODING -1
SWIDTH 895 0
DWIDTH 21 0
BBX 21 20 0 0
BITMAP
0001AAA40000
002AAAAA4000
009A40199000
02640002A400
098000009800
1A426AA02600
260250181600
25026A980940
290250680880
68026AA80880
68026BA00880
290252200980
250251600940
260250941A00
1A4250882600
098000009800
02640002A400
009A40199000
002AAAAA4000
0001AAA40000
ENDCHAR
STARTCHAR uni030A.case
ENCODING -1
SWIDTH 0 0
DWIDTH 0 0
BBX 6 5 1 21
BITMAP
2A40
9080
8090
9080
2A40
ENDCHAR
STARTCHAR section.case
ENCODING -1
SWIDTH 645 0
DWIDTH 15 0
BBX 14 24 1 -3
BITMAP
006AA400
06AAAA00
1A401980
252A9260
25802500
26A40000
229A9000
186A5900
06416600
046A4980
2650A580
59902580
99406580
58815980
652A5200
26906800
0A5A4600
01A96480
00019980
01002580
95AA9580
9A401A40
1AAAA900
01AA9000
ENDCHAR
STARTCHAR semicolon.case
ENCODING -1
SWIDTH 338 0
DWIDTH 8 0
BBX 6 15 1 -2
BITMAP
0960
0960
0960
0960
0000
0000
0000
0000
0000
1620
2650
2690
2580
5880
8940
ENDCHAR
STARTCHAR seven.case
ENCODING -1
SWIDTH 505 0
DWIDTH 12 0
BBX 11 20 0 0
BITMAP
6AAAA8
000000
6AAAA8
000000
6AAAA8
000104
000588
000894
000960
001A60
001660
002250
002580
005880
008940
009600
01A600
016600
022500
025800
ENDCHAR
STARTCHAR six.case
ENCODING -1
SWIDTH 558 0
DWIDTH 13 0
BBX 13 20 0 0
BITMAP
00AA9000
06AAA800
19806600
262A5A00
29908940
58805880
58800000
58800000
589A9000
58806800
589A8600
589A6200
58809940
58805880
58805880
29908940
262A5A00
19806600
066AA800
00AA9000
ENDCHAR
STARTCHAR slash.case
ENCODING -1
SWIDTH 504 0
DWIDTH 12 0
BBX 12 23 0 -1
BITMAP
000151
000266
000269
000698
000998
0009A4
001A60
002660
002690
006980
009980
009A40
01A600
026600
026900
069800
099800
09A400
1A6000
266000
269000
698000
998000
ENDCHAR
STARTCHAR uni00AD.case
ENCODING -1
SWIDTH 445 0
DWIDTH 11 0
BBX 9 4 1 8
BITMAP
AAAA40
000000
AAAA40
AAAA40
ENDCHAR
STARTCHAR sterling.case
ENCODING -1
SWIDTH 618 0
DWIDTH 15 0
BBX 14 20 0 0
BITMAP
006AA400
06400600
086AA480
25AAAA60
22901A60
25800800
26500000
01100000
6AAAA800
00000000
6AAAA800
6AAAA800
00000000
09940000
26200000
00000000
AAAAAAA0
00000000
AAAAAAA0
AAAAAAA0
ENDCHAR
STARTCHAR three.case
ENCODING -1
SWIDTH 558 0
DWIDTH 13 0
BBX 13 20 0 0
BITMAP
00AA9000
066AA800
19806600
262A5A00
25908940
58805880
00005880
00004940
00069240
00006800
00068600
00066200
00009940
00005880
58805880
25908940
262A5A00
19806600
066AA800
00AA9000
ENDCHAR
STARTCHAR threequarters.case
ENCODING -1
SWIDTH 722 0
DWIDTH 17 0
BBX 15 20 1 0
BITMAP
2A800164
9A600260
45200580
02400980
00902600
02202600
46609800
9A909400
2A422000
00065000
00088000
00194220
00220590
00590980
00881600
01640068
02602A68
09802A68
09800068
26000000
ENDCHAR
STARTCHAR uni00B3.case
ENCODING -1
SWIDTH 332 0
DWIDTH 8 0
BBX 6 9 1 11
BITMAP
2A80
9A60
4520
0240
0090
0220
4660
9A90
2A40
ENDCHAR
STARTCHAR tildecomb.case
ENCODING -1
SWIDTH 0 0
DWIDTH 0 0
BBX 10 3 1 21
BITMAP
2A4050
909080
802A40
ENDCHAR
STARTCHAR trademark.case
ENCODING -1
SWIDTH 850 0
DWIDTH 20 0
BBX 20 10 0 10
BITMAP
AAAA230075
00002280A5
ABAA226265
0250236975
02502289A5
0250222625
0250221825
0250220025
0250220025
0250220025
ENDCHAR
STARTCHAR two.case
ENCODING -1
SWIDTH 558 0
DWIDTH 13 0
BBX 13 20 0 0
BITMAP
00AA9000
06402800
186A8600
22AAA200
26909940
59805880
00005880
00008980
00025A40
00062600
00189800
00626400
00899000
02264000
099A0000
00440000
2AAAAA00
00000000
2AAAAA00
2AAAAA00
ENDCHAR
STARTCHAR uni00B2.case
ENCODING -1
SWIDTH 339 0
DWIDTH 8 0
BBX 6 9 1 11
BITMAP
1A80
6060
9A20
4660
0990
1140
AAA0
0000
AAA0
ENDCHAR
STARTCHAR underscore.case
ENCODING -1
SWIDTH 667 0
DWIDTH 16 0
BBX 14 4 1 0
BITMAP
AAAAAAA0
00000000
AAAAAAA0
AAAAAAA0
ENDCHAR
STARTCHAR yen.case
ENCODING -1
SWIDTH 769 0
DWIDTH 18 0
BBX 18 20 0 0
BITMAP
5990002220
2220005990
0998009980
0599026200
0222055900
0199499800
0099926000
0022615000
0019548000
0009980000
0001100000
0002140000
01A629A800
0002290000
01A629A800
0002290000
01A629A800
0002290000
0002290000
0002290000
ENDCHAR
STARTCHAR zero.case
ENCODING -1
SWIDTH 558 0
DWIDTH 13 0
BBX 13 20 0 0
BITMAP
00AA9000
06AAA800
19806600
262A5A00
29908940
58805980
58806880
58806880
58806880
58806880
58806880
58806880
58806880
58806880
58805980
29908940
262A5A00
19806600
066AA800
00AA9000
ENDCHAR
ENDFONT
